<svg viewBox="0 0 330 200" xmlns="http://www.w3.org/2000/svg"><g><g><g><g><g><line x1="70" y1="178" x2="65" y2="178" style="visibility: inherit;" fill="rgb(0, 0, 0)" stroke="rgb(204, 204, 204)" stroke-width="1px"></line><line x1="70" y1="164.30769230769232" x2="65" y2="164.30769230769232" style="visibility: inherit;" fill="rgb(0, 0, 0)" stroke="rgb(204, 204, 204)" stroke-width="1px"></line><line x1="70" y1="150.6153846153846" x2="65" y2="150.6153846153846" style="visibility: inherit;" fill="rgb(0, 0, 0)" stroke="rgb(204, 204, 204)" stroke-width="1px"></line><line x1="70" y1="136.9230769230769" x2="65" y2="136.9230769230769" style="visibility: inherit;" fill="rgb(0, 0, 0)" stroke="rgb(204, 204, 204)" stroke-width="1px"></line><line x1="70" y1="123.23076923076923" x2="65" y2="123.23076923076923" style="visibility: inherit;" fill="rgb(0, 0, 0)" stroke="rgb(204, 204, 204)" stroke-width="1px"></line><line x1="70" y1="109.53846153846153" x2="65" y2="109.53846153846153" style="visibility: inherit;" fill="rgb(0, 0, 0)" stroke="rgb(204, 204, 204)" stroke-width="1px"></line><line x1="70" y1="95.84615384615384" x2="65" y2="95.84615384615384" style="visibility: inherit;" fill="rgb(0, 0, 0)" stroke="rgb(204, 204, 204)" stroke-width="1px"></line><line x1="70" y1="82.15384615384616" x2="65" y2="82.15384615384616" style="visibility: inherit;" fill="rgb(0, 0, 0)" stroke="rgb(204, 204, 204)" stroke-width="1px"></line><line x1="70" y1="68.46153846153845" x2="65" y2="68.46153846153845" style="visibility: inherit;" fill="rgb(0, 0, 0)" stroke="rgb(204, 204, 204)" stroke-width="1px"></line><line x1="70" y1="54.769230769230774" x2="65" y2="54.769230769230774" style="visibility: inherit;" fill="rgb(0, 0, 0)" stroke="rgb(204, 204, 204)" stroke-width="1px"></line><line x1="70" y1="41.076923076923066" x2="65" y2="41.076923076923066" style="visibility: inherit;" fill="rgb(0, 0, 0)" stroke="rgb(204, 204, 204)" stroke-width="1px"></line><line x1="70" y1="27.384615384615387" x2="65" y2="27.384615384615387" style="visibility: inherit;" fill="rgb(0, 0, 0)" stroke="rgb(204, 204, 204)" stroke-width="1px"></line><line x1="70" y1="13.69230769230768" x2="65" y2="13.69230769230768" style="visibility: inherit;" fill="rgb(0, 0, 0)" stroke="rgb(204, 204, 204)" stroke-width="1px"></line><line x1="70" y1="0" x2="65" y2="0" style="visibility: inherit;" fill="rgb(0, 0, 0)" stroke="rgb(204, 204, 204)" stroke-width="1px"></line></g><g transform="translate(60, 0)"><text x="0" y="178" dx="0em" dy="0.3em" style="text-anchor: end; visibility: hidden; font-family: &quot;Helvetica Neue&quot;, sans-serif; font-size: 12px; font-weight: 200;" fill="rgb(50, 49, 63)" stroke="none" stroke-width="1px">-20.0</text><text x="0" y="164.30769230769232" dx="0em" dy="0.3em" style="text-anchor: end; visibility: inherit; font-family: &quot;Helvetica Neue&quot;, sans-serif; font-size: 12px; font-weight: 200;" fill="rgb(50, 49, 63)" stroke="none" stroke-width="1px">0.00</text><text x="0" y="150.6153846153846" dx="0em" dy="0.3em" style="text-anchor: end; visibility: hidden; font-family: &quot;Helvetica Neue&quot;, sans-serif; font-size: 12px; font-weight: 200;" fill="rgb(50, 49, 63)" stroke="none" stroke-width="1px">20.0</text><text x="0" y="136.9230769230769" dx="0em" dy="0.3em" style="text-anchor: end; visibility: inherit; font-family: &quot;Helvetica Neue&quot;, sans-serif; font-size: 12px; font-weight: 200;" fill="rgb(50, 49, 63)" stroke="none" stroke-width="1px">40.0</text><text x="0" y="123.23076923076923" dx="0em" dy="0.3em" style="text-anchor: end; visibility: hidden; font-family: &quot;Helvetica Neue&quot;, sans-serif; font-size: 12px; font-weight: 200;" fill="rgb(50, 49, 63)" stroke="none" stroke-width="1px">60.0</text><text x="0" y="109.53846153846153" dx="0em" dy="0.3em" style="text-anchor: end; visibility: inherit; font-family: &quot;Helvetica Neue&quot;, sans-serif; font-size: 12px; font-weight: 200;" fill="rgb(50, 49, 63)" stroke="none" stroke-width="1px">80.0</text><text x="0" y="95.84615384615384" dx="0em" dy="0.3em" style="text-anchor: end; visibility: hidden; font-family: &quot;Helvetica Neue&quot;, sans-serif; font-size: 12px; font-weight: 200;" fill="rgb(50, 49, 63)" stroke="none" stroke-width="1px">100</text><text x="0" y="82.15384615384616" dx="0em" dy="0.3em" style="text-anchor: end; visibility: inherit; font-family: &quot;Helvetica Neue&quot;, sans-serif; font-size: 12px; font-weight: 200;" fill="rgb(50, 49, 63)" stroke="none" stroke-width="1px">120</text><text x="0" y="68.46153846153845" dx="0em" dy="0.3em" style="text-anchor: end; visibility: hidden; font-family: &quot;Helvetica Neue&quot;, sans-serif; font-size: 12px; font-weight: 200;" fill="rgb(50, 49, 63)" stroke="none" stroke-width="1px">140</text><text x="0" y="54.769230769230774" dx="0em" dy="0.3em" style="text-anchor: end; visibility: inherit; font-family: &quot;Helvetica Neue&quot;, sans-serif; font-size: 12px; font-weight: 200;" fill="rgb(50, 49, 63)" stroke="none" stroke-width="1px">160</text><text x="0" y="41.076923076923066" dx="0em" dy="0.3em" style="text-anchor: end; visibility: hidden; font-family: &quot;Helvetica Neue&quot;, sans-serif; font-size: 12px; font-weight: 200;" fill="rgb(50, 49, 63)" stroke="none" stroke-width="1px">180</text><text x="0" y="27.384615384615387" dx="0em" dy="0.3em" style="text-anchor: end; visibility: inherit; font-family: &quot;Helvetica Neue&quot;, sans-serif; font-size: 12px; font-weight: 200;" fill="rgb(50, 49, 63)" stroke="none" stroke-width="1px">200</text><text x="0" y="13.69230769230768" dx="0em" dy="0.3em" style="text-anchor: end; visibility: hidden; font-family: &quot;Helvetica Neue&quot;, sans-serif; font-size: 12px; font-weight: 200;" fill="rgb(50, 49, 63)" stroke="none" stroke-width="1px">220</text><text x="0" y="0" dx="0em" dy="0.3em" style="text-anchor: end; visibility: hidden; font-family: &quot;Helvetica Neue&quot;, sans-serif; font-size: 12px; font-weight: 200;" fill="rgb(50, 49, 63)" stroke="none" stroke-width="1px">240</text></g><line x1="70" y1="0" x2="70" y2="178" fill="rgb(0, 0, 0)" stroke="rgb(204, 204, 204)" stroke-width="1px"></line></g></g><g transform="translate(70, 0)" clip-path="url(#clip_0)"><clipPath id="clip_0"><rect width="260" height="178"></rect></clipPath><g><g><g><line x1="0" y1="0" x2="0" y2="178" fill="rgb(0, 0, 0)" stroke="rgb(60, 60, 60)" stroke-width="1px" opacity="0.25"></line><line x1="32.5" y1="0" x2="32.5" y2="178" fill="rgb(0, 0, 0)" stroke="rgb(60, 60, 60)" stroke-width="1px" opacity="0.25"></line><line x1="65" y1="0" x2="65" y2="178" fill="rgb(0, 0, 0)" stroke="rgb(60, 60, 60)" stroke-width="1px" opacity="0.25"></line><line x1="97.5" y1="0" x2="97.5" y2="178" fill="rgb(0, 0, 0)" stroke="rgb(60, 60, 60)" stroke-width="1px" opacity="0.25"></line><line x1="130" y1="0" x2="130" y2="178" fill="rgb(0, 0, 0)" stroke="rgb(60, 60, 60)" stroke-width="1px" opacity="0.25"></line><line x1="162.5" y1="0" x2="162.5" y2="178" fill="rgb(0, 0, 0)" stroke="rgb(60, 60, 60)" stroke-width="1px" opacity="0.25"></line><line x1="195" y1="0" x2="195" y2="178" fill="rgb(0, 0, 0)" stroke="rgb(60, 60, 60)" stroke-width="1px" opacity="0.25"></line><line x1="227.5" y1="0" x2="227.5" y2="178" fill="rgb(0, 0, 0)" stroke="rgb(60, 60, 60)" stroke-width="1px" opacity="0.25"></line><line x1="260" y1="0" x2="260" y2="178" fill="rgb(0, 0, 0)" stroke="rgb(60, 60, 60)" stroke-width="1px" opacity="0.25"></line></g><g><line x1="0" y1="178" x2="260" y2="178" fill="rgb(0, 0, 0)" stroke="rgb(60, 60, 60)" stroke-width="1px" opacity="0.25"></line><line x1="0" y1="164.30769230769232" x2="260" y2="164.30769230769232" fill="rgb(0, 0, 0)" stroke="rgb(60, 60, 60)" stroke-width="1px" opacity="0.25"></line><line x1="0" y1="150.6153846153846" x2="260" y2="150.6153846153846" fill="rgb(0, 0, 0)" stroke="rgb(60, 60, 60)" stroke-width="1px" opacity="0.25"></line><line x1="0" y1="136.9230769230769" x2="260" y2="136.9230769230769" fill="rgb(0, 0, 0)" stroke="rgb(60, 60, 60)" stroke-width="1px" opacity="0.25"></line><line x1="0" y1="123.23076923076923" x2="260" y2="123.23076923076923" fill="rgb(0, 0, 0)" stroke="rgb(60, 60, 60)" stroke-width="1px" opacity="0.25"></line><line x1="0" y1="109.53846153846153" x2="260" y2="109.53846153846153" fill="rgb(0, 0, 0)" stroke="rgb(60, 60, 60)" stroke-width="1px" opacity="0.25"></line><line x1="0" y1="95.84615384615384" x2="260" y2="95.84615384615384" fill="rgb(0, 0, 0)" stroke="rgb(60, 60, 60)" stroke-width="1px" opacity="0.25"></line><line x1="0" y1="82.15384615384616" x2="260" y2="82.15384615384616" fill="rgb(0, 0, 0)" stroke="rgb(60, 60, 60)" stroke-width="1px" opacity="0.25"></line><line x1="0" y1="68.46153846153845" x2="260" y2="68.46153846153845" fill="rgb(0, 0, 0)" stroke="rgb(60, 60, 60)" stroke-width="1px" opacity="0.25"></line><line x1="0" y1="54.769230769230774" x2="260" y2="54.769230769230774" fill="rgb(0, 0, 0)" stroke="rgb(60, 60, 60)" stroke-width="1px" opacity="0.25"></line><line x1="0" y1="41.076923076923066" x2="260" y2="41.076923076923066" fill="rgb(0, 0, 0)" stroke="rgb(60, 60, 60)" stroke-width="1px" opacity="0.25"></line><line x1="0" y1="27.384615384615387" x2="260" y2="27.384615384615387" fill="rgb(0, 0, 0)" stroke="rgb(60, 60, 60)" stroke-width="1px" opacity="0.25"></line><line x1="0" y1="13.69230769230768" x2="260" y2="13.69230769230768" fill="rgb(0, 0, 0)" stroke="rgb(60, 60, 60)" stroke-width="1px" opacity="0.25"></line><line x1="0" y1="0" x2="260" y2="0" fill="rgb(0, 0, 0)" stroke="rgb(60, 60, 60)" stroke-width="1px" opacity="0.25"></line></g></g></g><g><g><line x1="0" y1="164.30769230769232" x2="260" y2="164.30769230769232" fill="rgb(0, 0, 0)" stroke="rgb(153, 153, 153)" stroke-width="1.5px"></line></g></g><g><g><line x1="32.5" y1="0" x2="32.5" y2="178" fill="rgb(0, 0, 0)" stroke="rgb(153, 153, 153)" stroke-width="1.5px"></line></g></g><g><g><g><g><g><path stroke="rgb(238, 51, 119)" stroke-width="2px" d="M32.5,158.14615384615385L33.15,157.57468858353667L33.800000000000004,158.03658917763204L34.45,158.12459530311932L35.1,158.69111919584176L35.75,152.21398978463412L36.400000000000006,152.57909741017397L37.05,154.2985730413129L37.699999999999996,150.24653095157083L38.35,155.48390592112995L39,155.42278260203216L39.65,155.95974172638265L40.3,155.51699809227472L40.95,102.17036561467728L41.6,141.02327085433953L42.25,141.0292845522362L42.9,139.9323521874954L43.550000000000004,143.55859034850948L44.2,144.82564704285107L44.849999999999994,143.97840119140758L45.5,142.16346189743717L46.15,140.70598084030794L46.8,153.04581497561173L47.449999999999996,152.19473290363266L48.1,155.32058788415003L48.75,144.9582764010617L49.4,152.24058488125638L50.050000000000004,153.6824819603349L50.7,141.3395621973771L51.35,140.54284869969604L52,131.60011481177057L52.650000000000006,136.4181919634998L53.3,144.50997123954218L53.949999999999996,148.85745122850628L54.6,138.73702149709038L55.25,137.83129948719312L55.9,146.4369511446181L56.55,118.49154709586514L57.2,147.549234017289L57.85,133.53644064311553L58.5,149.97906140118303L59.15,147.19502338820348L59.800000000000004,154.87970693855658L60.45,152.0087819738342L61.099999999999994,141.55723113851147L61.75,148.27280868850218L62.4,149.60249304340036L63.05,148.7676474687471L63.699999999999996,133.2286249680427L64.35,125.75940620521092L65,144.59577781324714L65.65,135.69696400702293L66.3,144.91622964262132L66.95,143.9963365461621L67.60000000000001,153.14824386690933L68.25,145.6262753625711L68.9,154.5690948294814L69.55,152.49634231469886L70.2,150.98781423984883L70.85000000000001,142.45320260410546L71.5,150.64645719253596L72.15,155.01402929335288L72.80000000000001,143.7994547231608L73.44999999999999,145.42239972749354L74.1,154.52872745373602L74.75,156.88084188199358L75.39999999999999,155.15031438494242L76.05,149.86611609437244L76.7,153.2123371405319L77.35,151.12958121536377L78,153.46250323448817L78.64999999999999,156.12066794812097L79.3,145.6657537921895L79.95,146.34098848162276L80.6,147.5728080270536L81.25,145.07140060474123L81.9,153.91016808896953L82.55,150.16962866623135L83.2,128.56466339899072L83.85000000000001,145.15121873761555L84.5,150.6316028485094L85.15,156.65827274862025L85.8,135.34003031191912L86.45,143.19837215560614L87.10000000000001,135.96933922527154L87.75,143.87203685891146L88.4,126.21961714421832L89.05000000000001,143.58877650224753L89.69999999999999,139.34100851667577L90.35,140.1471350709172L91,134.26707120558007L91.64999999999999,140.24061856024332L92.3,133.7365193980051L92.95,142.88087699465115L93.6,146.3386444141717L94.25,154.7101439016983L94.89999999999999,123.42400849253627L95.55,119.42559983536833L96.2,141.14543799817216L96.85,138.30816595440731L97.5,143.23700147435727L98.15,146.95821859961504L98.8,140.55721959041608L99.45,131.60296024813314L100.10000000000001,147.39998612913035L100.75,141.19375109972165L101.4,133.92523964082181L102.05,138.52575129503657L102.7,137.78946798718647L103.35000000000001,145.87960696915525L104,135.95116217989272L104.65,140.02500703469568L105.30000000000001,124.90884370056204L105.94999999999999,135.64238182194205L106.6,149.84697621612915L107.25,141.67825513694743L107.89999999999999,146.6495868248079L108.55,151.47734126823502L109.2,127.72546741726438L109.85,135.10195024092604L110.5,140.95498614770335L111.14999999999999,142.11388725724527L111.8,130.26399583078071L112.45,133.4083327129561L113.1,112.0684498771653L113.75,97.96004538337104L114.4,125.91402744744593L115.05,145.72451589613274L115.7,141.41106953204968L116.35000000000001,140.55700715196122L117,49.792748954549864L117.65,123.51470275453933L118.3,117.24731114539878L118.95,146.75381376063513L119.60000000000001,134.47707050922114L120.25,151.263429191595L120.9,136.46809744147427L121.55000000000001,136.28392944725806L122.19999999999999,146.13057187671095L122.85,138.74616092389647L123.5,105.98753986293148L124.14999999999999,123.66004058516813L124.8,108.49110342047867L125.45,134.03885386187017L126.1,121.52733921849645L126.75,99.8329054729546L127.39999999999999,109.81300759133731L128.05,120.57405242616171L128.7,73.83826238038L129.35,134.31539133593063L130,123.22927825374504L130.64999999999998,89.18865863270307L131.3,129.1188467169675L131.95,133.18159318842112L132.6,148.81067852823045L133.25,114.01999127166654L133.9,146.11480442563612L134.54999999999998,86.03313127627595L135.20000000000002,129.59217537731803L135.85,47.62171226317051L136.5,31.391560566569296L137.15,28.177990530642262L137.8,54.4457190481441L138.45,32.74271390999408L139.1,28.445518892640337L139.75,55.59681274074278L140.4,32.97063046112859L141.04999999999998,28.49064636976499L141.70000000000002,107.76659413505962L142.35,43.300247177203346L143,30.535910479547823L143.65,28.008571813412004L144.3,27.508158757517094L144.95,27.409076972449895L145.60000000000002,27.389458779006617L146.25,27.385574376704824L146.89999999999998,27.384805265049096L147.55,27.38465298094124L148.2,27.384622828687895L148.85,27.384616858541733L149.5,27.384615676452796L150.15,27.384615442399195L150.79999999999998,27.384615396056574L151.45000000000002,27.38461538688074L152.1,27.38461538506391L152.75,27.384615384704205L153.4,27.38461538463298L154.05,27.384615384618854L154.7,27.38461538461607L155.35,27.38461538461553L156,27.384615384615415L156.65,27.384615384615387L157.29999999999998,27.384615384615387L157.95000000000002,27.384615384615387L158.6,27.384615384615387L159.25,27.384615384615387L159.9,27.384615384615387L160.55,27.384615384615387L161.2,27.384615384615387L161.85000000000002,27.384615384615387L162.5,32.87523076923077L163.14999999999998,38.35486492307692L163.8,34.49827863938461L164.45,28.79312070905968L165.1,43.03722251577841L165.75,30.483831596585674L166.4,27.99826019458547L167.04999999999998,82.96133244160484L167.70000000000002,48.820974592668506L168.35,31.6290145078099L169,28.225006411007882L169.65,48.415351269379556L170.3,31.54870108979867L170.95,28.209104354241674L171.6,27.547864200601396L172.25,30.711307880949846L172.9,28.043300498889607L173.54999999999998,27.515035037241688L174.20000000000002,27.410438475835377L174.85,27.389728356676926L175.5,27.385627753083554L176.15,27.384815833572077L176.8,27.38465507350881L177.45,27.38462324301628L178.10000000000002,27.384616940578752L178.75,27.384615692696144L179.39999999999998,27.384615445615367L180.05,27.384615396693363L180.7,27.384615387006818L181.35,27.384615385088892L182,32.32616923086297" style="fill: none;" fill="none"></path></g><g><path stroke="rgb(51, 187, 238)" stroke-width="2px" d="M32.5,158.14615384615385L33.15,157.57468858353667L33.800000000000004,157.48323226590577L34.45,156.91590033347663L35.1,157.90286400028432L35.75,158.09799421418995L36.400000000000006,155.39127825441454L37.05,153.2081910143508L37.699999999999996,147.28532674290216L38.35,149.95603340396383L39,153.77920237639617L39.65,140.809651254208L40.3,145.92854172124373L40.95,152.98175895411788L41.6,155.4764190422164L42.25,143.34194635490653L42.9,145.33181307058138L43.550000000000004,142.43143744951294L44.2,153.3874553842348L44.849999999999994,155.00768539684773L45.5,155.32849093934507L46.15,152.64670274445186L46.8,155.41007791263223L47.449999999999996,155.40816465747042L48.1,153.76060121756376L48.75,157.277814425693L49.4,157.9742226409026L50.050000000000004,158.1121114675141L50.7,157.59035191672163L51.35,157.48704352566472L52,157.46658846423546L52.650000000000006,152.52098451591863L53.3,155.9342472418442L53.949999999999996,156.61007326157744L54.6,155.09670219810002L55.25,154.7970547275315L55.9,152.5414783745128L56.55,156.48736656430737L57.2,155.07240627204055L57.85,156.43942874955633L58.5,155.6119761231814L59.15,156.5462635800822L59.800000000000004,156.7312524965486L60.45,158.41506491739355L61.099999999999994,158.1993982382593L61.75,146.62640392809843L62.4,153.66899720853272L63.05,155.0634306780587L63.699999999999996,152.59422081271717L64.35,155.39968649014878L65,155.95516869428022L65.65,156.06515417069826L66.3,156.08693129502902L66.95,150.60062778103114L67.60000000000001,151.16152430064417L68.25,156.76319719614293L68.9,146.34203612175938L69.55,150.8673846905699L70.2,136.3896806302713L70.85000000000001,150.54400291863988L71.5,153.89562027019838L72.15,151.81393281349926L72.80000000000001,154.14706638938054L73.44999999999999,151.31465760663582L74.1,152.40102528303697L74.75,151.5180030060413L75.39999999999999,152.44128767211924L76.05,145.4862980360027L76.7,147.40357931882085L77.35,150.5285087051265L78,153.89255241592275L78.64999999999999,141.38115614758345L79.3,151.53231507106767L79.95,148.6006906917637L80.6,145.82398291081537L81.25,139.7835793855722L81.9,126.50822564142021L82.55,149.13653636930889L83.2,141.537588047277L83.85000000000001,144.42548858720698L84.5,141.15386212488238L85.15,149.2910647007267L85.8,104.78106157997465L86.45,136.5986348082196L87.10000000000001,152.7816219997198L87.75,152.14242269440606L88.4,155.8592920011847L89.05000000000001,148.3593090470038L89.69999999999999,151.81586626822983L90.35,153.59838767495566L91,147.3625884519489L91.64999999999999,155.46194635963974L92.3,150.47688076382406L92.95,151.6860839296987L93.6,155.76893692577266L94.25,140.6545572036107L94.89999999999999,149.74126386477644L95.55,152.08949332214883L96.2,151.45631967778547L96.85,154.62532052697077L97.5,154.7037211566479L98.15,152.5229983274778L98.8,156.48370751499445L99.45,156.71886639566122L100.10000000000001,146.333258623264L100.75,154.70907751509858L101.4,150.3278127326049L102.05,153.30375307490192L102.7,154.99111233959982L103.35000000000001,150.93271716631767L104,145.73666261431552L104.65,147.4531515053268L105.30000000000001,155.47987784420854L105.94999999999999,156.5201081208456L106.6,144.09765833100434L107.25,149.32487481107734L107.89999999999999,152.00704828951638L108.55,154.18530325363193L109.2,153.51847465960373L109.85,156.6808118287554L110.5,145.77666228055512L111.14999999999999,151.30450220847297L111.8,152.94807605266226L112.45,154.37162675073483L113.1,147.51568978895318L113.75,154.94319888590502L114.4,155.31572261017843L115.05,138.91763615373839L115.7,150.49547657382482L116.35000000000001,140.15947359238655L117,147.99605269436947L117.65,128.13429535656206L118.3,150.55662124983004L118.95,135.77908793054328L119.60000000000001,118.02847479486294L120.25,138.67256108630593L120.9,148.25070555662705L121.55000000000001,144.65656277713524L122.19999999999999,153.82803019910355L122.85,151.25148844096097L123.5,149.0941485574641L124.14999999999999,143.72544141437788L124.8,138.81900663081603L125.45,145.53439408213234L126.1,152.9037177205699L126.75,140.63630533944206L127.39999999999999,154.67920384182491L128.05,151.42002082221978L128.7,156.26531796895335L129.35,151.73407141939123L130,148.09157691027025L130.64999999999998,151.7628553051566L131.3,155.23507611965178L131.95,156.47163737938337L132.6,146.8333688165025L133.25,147.12123779489826L133.9,152.11978969877447L134.54999999999998,146.5207645142035L135.20000000000002,153.09901906611998L135.85,154.950575005861L136.5,152.02281385116046L137.15,150.89405560406823L137.8,145.1799460865286L138.45,152.2844754789788L139.1,153.1421107602224L139.75,148.91943023821634L140.4,147.5342779563976L141.04999999999998,118.70881780459749L141.70000000000002,133.86571515607952L142.35,151.69144237013452L143,149.73032097390202L143.65,148.2438958605249L144.3,137.517414457307L144.95,135.94263267793139L145.60000000000002,115.3155489625381L146.25,140.33164792535177L146.89999999999998,150.2263893661427L147.55,152.18554817141933L148.2,135.00349238409487L148.85,128.85613764589692L149.5,141.91456140773374L150.15,131.87171392796205L150.79999999999998,143.0607070500442L151.45000000000002,122.21554307283182L152.1,121.93163137457455L152.75,138.34726301216577L153.4,148.73535807640883L154.05,151.89032397605203L154.7,132.748791839566L155.35,145.4306146303879L156,147.94161554297065L156.65,80.35516295443125L157.29999999999998,104.30922995728508L157.95000000000002,112.34650445461936L158.6,126.0172386512454L159.25,137.50902863756198L159.9,144.17689536254497L160.55,141.1046406663993L161.2,144.3397650057932L161.85000000000002,149.92187347114705L162.5,140.5949617165179L163.14999999999998,125.57075626602438L163.8,131.93000974067283L164.45,126.60040346711476L165.1,112.36766450187334L165.75,132.06110526367863L166.4,134.86228345759298L167.04999999999998,144.20190135537263L167.70000000000002,148.7964533914407L168.35,136.52869777150525L169,140.13935908183495L169.65,130.42210079051102L170.3,133.98869903344425L170.95,148.4214239470835L171.6,121.08071886459945L172.25,144.21845925826761L172.9,142.21099339467546L173.54999999999998,139.06820746137652L174.20000000000002,146.13279738504485L174.85,130.5106784976235L175.5,116.98532972714483L176.15,102.22795682443622L176.8,138.83842775893066L177.45,131.8117010039606L178.10000000000002,149.0885014141688L178.75,130.54684635692848L179.39999999999998,141.15119865559492L180.05,133.91681425688472L180.7,137.42595999209394L181.35,129.88484777074228L182,143.76543062783776L182.65,103.13792449508111L183.29999999999998,137.9204782807953L183.95000000000002,143.16023931498208L184.6,127.7258658459049L185.25,120.27736759133533L185.9,106.7232110907767L186.55,112.8244727190507L187.2,114.03252252144895L187.85,95.05456253616997L188.5,110.51408030523856L189.15,113.02600328505261L189.79999999999998,117.9158563427481L190.45000000000002,135.9049549404795L191.1,108.17028877052263L191.75,122.44504025348655L192.4,74.20871797019034L193.05,119.56408000425152L193.7,104.93479553314948L194.35000000000002,138.82532028479437L195,78.00107495485082L195.64999999999998,128.00182822567584L196.3,54.44462352714534L196.95,66.23525084299015L197.6,74.60947197460435L198.25,79.5619369894332L198.9,51.9913250623693L199.54999999999998,32.256743900810676L200.20000000000002,28.349296830822055L200.85,27.57562231096429L201.5,27.42243475603246L202.15,27.39210362015598L202.8,27.386098055252404L203.45,27.38490895340152L204.1,27.384673511235036L204.75,27.38462689368609L205.4,27.384617663411376L206.04999999999998,27.384615835816987L206.70000000000002,27.38461547395329L207.35,27.38461540230429L208,35.07147692657932L208.65,28.90661396992425L209.3,27.685971104506535L209.95,27.44428381715383L210.60000000000002,27.396429734257993L211.25,27.386954625844623L211.89999999999998,52.64190932360954L212.55,32.385559584536225L213.2,28.374802336199707L213.85,27.580672401029062L214.5,27.423434673865273L215.15,52.64913237311761L215.79999999999998,32.386989748338834L216.45000000000002,28.375085508632623L217.1,39.111020776863086L217.75,36.29518211381887L218.4,29.148907596997674L219.05,61.22669908882092L219.7,70.87247103497116L220.35,40.38770311107811L221,29.959226754455017L221.65,36.679373051228225L222.29999999999998,60.52148509491241L222.95000000000002,56.45723866417727L223.6,70.47717940935325L224.25,41.95661998459039L224.9,51.68327229541045L225.55,53.60914945295278L226.2,32.577073130146175L226.85000000000002,48.72799894130739" style="fill: none;" fill="none"></path></g><g><path stroke="rgb(204, 51, 17)" stroke-width="2px" d="M32.5,157.46153846153845L33.15,158.03300372415563L33.800000000000004,157.57110313006027L34.45,157.48309700457298L35.1,156.3673444338665L35.75,157.79403554740816L36.400000000000006,156.42923352493378L37.05,155.06089269791374L37.699999999999996,142.16154302858467L38.35,146.74527825184595L39,149.3000420637879L39.65,156.94368527945818L40.3,154.6136958375039L40.95,149.75986562128875L41.6,153.74036108543504L42.25,153.97943764876362L42.9,156.22302096214997L43.550000000000004,155.5691273812748L44.2,153.24341029841537L44.849999999999994,155.52822600831703L45.5,157.07874259580063L46.15,155.73856026473774L46.8,143.39385031703347L47.449999999999996,151.9308285166188L48.1,154.1702117385982L48.75,155.16267115501168L49.4,156.4573011963846L50.050000000000004,155.06645332919186L50.7,156.98731160533384L51.35,156.8185800055484L52,155.13798653340626L52.650000000000006,156.45241364130675L53.3,155.61454713174797L53.949999999999996,143.91835725516302L54.6,155.8781116595992L55.25,156.59895841629296L55.9,155.64356299719523L56.55,157.65064085806003L57.2,158.04804227451126L57.85,154.28329698573785L58.5,155.18506203394531L59.15,151.52018074425962L59.800000000000004,156.28514963351725L60.45,152.2870596274364L61.099999999999994,155.8879301139247L61.75,156.6009024702494L62.4,150.70239407372478L63.05,153.9269817189052L63.699999999999996,156.76169622649707L64.35,157.32296969900025L65,156.33597876963282L65.65,155.042431488695L66.3,155.8844322039924L66.95,154.40396373023663L67.60000000000001,151.36552328012533L68.25,154.0582813017725L68.9,152.94426277467403L69.55,156.5671178755393L70.2,151.2447662624337L70.85000000000001,155.68155602765418L71.5,153.2656711703986L72.15,156.08169519943124L72.80000000000001,146.20709872641046L73.44999999999999,155.78222093244466L74.1,157.12903359077788L74.75,152.45414865097402L75.39999999999999,151.52852143289286L76.05,152.44337032063586L76.7,144.93764886194742L77.35,154.4327467823579L78,156.86183770906072L78.64999999999999,155.1465515587017L79.3,157.00317105477677L79.95,156.27265863807656L80.6,156.67707871803145L81.25,157.30621543232408L81.9,157.430784501754L82.55,156.9063876390396L83.2,156.2534955217606L83.85000000000001,155.0260998056163L84.5,154.78307545381972L85.15,156.38214124754862L85.8,156.69875627470694L86.45,151.81989220393044L87.10000000000001,156.34449250253206L87.75,153.94599413088596L88.4,156.21639914560774L89.05000000000001,156.66593933852263L89.69999999999999,154.55870214287364L90.35,154.14146917813514L91,155.15698012803998L91.64999999999999,154.25992821919806L92.3,152.9841888643243L92.95,156.57502324129007L93.6,153.4425776786985L94.25,150.62610730345924L94.89999999999999,148.42126155377724L95.55,146.33751747995558L96.2,149.2193053841081L96.85,141.00491477374572L97.5,150.35969620212472L98.15,153.31006600186686L98.8,150.59986999144655L99.45,151.1613742583064L100.10000000000001,156.76316748776006L100.75,156.22513793180727L101.4,157.2167311566517L102.05,147.5299589228632L102.7,152.74977802057307L103.35000000000001,151.58705604807346L104,150.25871402059548L104.65,151.09382537607792L105.30000000000001,152.3573005013865L105.94999999999999,119.11471473004376L106.6,146.57449813193327L107.25,149.81528909166124L107.89999999999999,153.20227339399509L108.55,151.67665013201102L109.2,149.17833057229203L109.85,151.9780325302369L110.5,154.1795581332946L111.14999999999999,151.3210909719308L111.8,149.10792985859615L112.45,154.16033934277127L113.1,154.06259334371487L113.75,134.27702425128632L114.4,135.3010354171393L115.05,151.4265742433628L115.7,155.1684924694166L116.35000000000001,153.16408458586756L117,150.02190413261715L117.65,152.69412163364282L118.3,148.28166685269204L118.95,153.4476777291407L119.60000000000001,152.2743017288314L120.25,138.31543481923168L120.9,152.0234253249771L121.55000000000001,150.3451151374224L122.19999999999999,148.36562510490194L122.85,144.67931684769366L123.5,139.00787396661258L124.14999999999999,147.76803596846622L124.8,150.05160958329478L125.45,150.50375715903084L126.1,154.43671314825733L126.75,149.72482304950879L127.39999999999999,149.88999188687967L128.05,150.47175685514063L128.7,150.03788478039476L129.35,151.05010118651816L130,153.9958277272383L130.64999999999998,150.18658927460856L131.3,153.27579083021865L131.95,152.24026812284484L132.6,149.83898847293867L133.25,151.5597812561034L133.9,152.44955976563153L134.54999999999998,153.7238589874412L135.20000000000002,156.17241638720566L135.85,150.6175538292821L136.5,151.16487565819784L137.15,153.46949153416932L137.8,143.49363624684244L138.45,150.30340151533633L139.1,151.1026735000366L139.75,152.90811396839186L140.4,153.81465271958774L141.04999999999998,151.24883970001684L141.70000000000002,137.56333179906488L142.35,148.58013969621484L143,147.46709842908132L143.65,153.83545471972732L144.3,148.50765080373677L144.95,123.29403793606295L145.60000000000002,143.5585733574943L146.25,131.6481667555531L146.89999999999998,149.05612163298412L147.55,154.69914285256164L148.2,155.81646105403797L148.85,151.09613621177644L149.5,145.76901958531636L150.15,150.75392741635417L150.79999999999998,153.9371853207458L151.45000000000002,129.31063961658458L152.1,131.0233220286991L152.75,131.91149468475936L153.4,143.61764517835158L154.05,151.42607836069823L154.7,138.69654813080285L155.35,131.78360883759126L156,147.98481608830463L156.65,150.64359358548433L157.29999999999998,143.48316999146437L157.95000000000002,142.61446765830993L158.6,151.7765107501915L159.25,127.23564143623022L159.9,117.98405700437358L160.55,124.38816636378904L161.2,141.02990309387638L161.85000000000002,141.579659274126L162.5,115.88261869012311L163.14999999999998,132.20800465449054L163.8,148.6179079985122L164.45,132.64991501447463L165.1,141.56760624978907L165.75,133.45020142207363L166.4,145.0204321892629L167.04999999999998,140.17353788116637L167.70000000000002,152.39132973124018L168.35,147.12359097909325L169,146.08057870616815L169.65,127.20596996843668L170.3,147.078443592212L170.95,141.67914721587334L171.6,137.31571730258906L172.25,128.2158351028357L172.9,123.66875073497685L173.54999999999998,116.72875110706387L174.20000000000002,99.43184656535249L174.85,99.30142869686287L175.5,119.04182134351731L176.15,131.18634216447796L176.8,143.47406497933588L177.45,131.63143409667774L178.10000000000002,118.8544239511422L178.75,129.50205286540307L179.39999999999998,145.3368218519652L180.05,140.2361830343814L180.7,140.87344116388445L181.35,132.21463365814142L182,111.28303592585046L182.65,121.41417957485685L183.29999999999998,138.24480755582164L183.95000000000002,149.81319497297577L184.6,126.29784337387997L185.25,127.68148068033592L185.9,130.70074855932188L186.55,137.88730206089957L187.2,118.4459011926735L187.85,144.79488843614934L188.5,133.54014175651142L189.15,124.1739019139431L189.79999999999998,140.43841719434533L190.45000000000002,125.53976045063422L191.1,130.27668795384096L191.75,124.62586113793743L192.4,119.66356665915777L193.05,131.3094477369748L193.7,134.71345526730562L194.35000000000002,90.36440260446496L195,108.4873055618379L195.64999999999998,112.07564034739774L196.3,143.53357678878476L196.95,107.48450974264092L197.6,122.8583175444275L198.25,137.43262379687357L198.9,103.5312133579348L199.54999999999998,101.21122639871724L200.20000000000002,111.1840382115614L200.85,103.8246087966584L201.5,119.38834946481528L202.15,106.54718550172574L202.8,117.73117349857246L203.45,105.12094158348658L204.1,101.52599258737649L204.75,99.71606960922362L205.4,91.6708433210878L206.04999999999998,40.11328851603693L206.70000000000002,83.16386189540609L207.35,94.9822446552904L208,40.768945980209025L208.65,62.4293436117737L209.3,94.17117926590042L209.95,75.74829349464828L210.60000000000002,67.15900826578651L211.25,40.75056055970265L211.89999999999998,30.031072529282653L212.55,27.908613899259507L213.2,27.488367090514913L213.85,55.95635822238347L214.5,33.041820466493476L215.15,56.50688045236569L215.79999999999998,61.15296232956841L216.45000000000002,67.56350192586991L217.1,52.36094261209146L217.75,57.03769740642487L218.4,57.41463331724134L219.05,33.33055893527532L219.7,28.56191220764603L220.35,43.54050477096007L221,38.270343021573154L221.65,29.539989456732997L222.29999999999998,45.93041022012545L222.95000000000002,45.33228276204639L223.6,44.66479198688518L224.25,52.21949035186479L224.9,32.30192062813077L225.55,47.575395668985266L226.2,40.71643603476676L226.85000000000002,33.86774664257612" style="fill: none;" fill="none"></path></g><g><path stroke="rgb(0, 119, 187)" stroke-width="2px" d="M32.5,135.55384615384617L33.15,154.41219982021317L33.800000000000004,154.1101168316748L34.45,154.05256082560612L35.1,143.60590487347005L35.75,149.77694099905995L36.400000000000006,149.3512446236857L37.05,150.91415012742644L37.699999999999996,145.1839221220065L38.35,148.99089385579302L39,155.23528940563986L39.65,152.07918729085804L40.3,148.70897138885948L40.95,150.23791479675026L41.6,153.83501482216562L42.25,148.50756370398983L42.9,152.3942822287789L43.550000000000004,151.51666788129802L44.2,156.28445408665107L44.849999999999994,151.73786037069533L45.5,154.13200404570537L46.15,149.6644906472035L46.8,153.721476840454L47.449999999999996,147.3869601067176L48.1,155.46677194728392L48.75,154.8703285378699L49.4,156.39941735819053L50.050000000000004,152.30968463692173L50.7,152.59804063503358L51.35,154.8513812765059L52,155.29754272351738L52.650000000000006,154.83682115156412L53.3,153.64747520339432L53.949999999999996,145.72512316719514L54.6,155.13772823325849L55.25,154.80517788249287L55.9,153.6412098361182L56.55,152.31262108601294L57.2,154.24580666733826L57.85,150.78514664320988L58.5,155.59055134304788L59.15,156.5420214736158L59.800000000000004,157.27947409792978L60.45,151.93487433292856L61.099999999999994,153.07288973330446L61.75,128.59044755180966L62.4,148.45069323064294L63.05,152.93208341351345L63.699999999999996,153.27033713126028L64.35,151.69012675198954L65,155.22067586612468L65.65,154.27253997533884L66.3,145.84888599204015L66.95,148.57349481103932L67.60000000000001,150.21109043412426L68.25,153.28064205980274L68.9,146.20155174322556L69.55,147.54519955285096L70.2,153.85091874223372L70.85000000000001,154.55038960326996L71.5,155.2379463722167L72.15,154.8250210740066L72.80000000000001,155.29232340342253L73.44999999999999,151.5414184954161L74.1,152.994985477477L74.75,147.24311481684813L75.39999999999999,155.43829057988978L76.05,151.57031999635663L76.7,155.74601566697092L77.35,148.885941871291L78,144.7823395674387L78.64999999999999,148.9113801574298L79.3,149.72893019424802L79.95,149.89080510153804L80.6,151.57004094856606L81.25,151.35346810781607L81.9,155.15401745457837L82.55,145.47435699446805L83.2,145.75403037721236L83.85000000000001,152.3981441685342L84.5,153.71367869921593L85.15,141.89480069013706L85.8,154.37932438280097L86.45,154.65501392010228L87.10000000000001,156.9058466023341L87.75,155.70432685803138L88.4,142.83801056404405L89.05000000000001,147.97734147629612L89.69999999999999,142.40619053538356L90.35,148.98996418754442L91,147.54824367836457L91.64999999999999,147.81184455600848L92.3,153.9037144528589L92.95,144.12867392320453L93.6,150.42913897525602L94.25,153.8728772094084L94.89999999999999,145.22069122592438L95.55,129.7810199396561L96.2,138.80331887112882L96.85,147.17847252109888L97.5,144.9933221745622L98.15,148.95315471364023L98.8,152.48250924868537L99.45,153.18132144662434L100.10000000000001,140.69127087720085L100.75,148.65041009522423L101.4,148.57913504500823L102.05,145.8197148927578L102.7,152.96021124107372L103.35000000000001,117.58690644111721L104,146.27199209072583L104.65,154.14788520319448L105.30000000000001,150.76575819330944L105.94999999999999,140.76205089150602L106.6,150.8606706919028L107.25,144.07521279699677L107.89999999999999,143.28075367226688L108.55,151.35937384249345L109.2,145.27207909773676L109.85,152.85177935365957L110.5,151.05819077356307L111.14999999999999,154.5464910039347L111.8,155.78623598800985L112.45,144.50141318716442L113.1,149.40481827259703L113.75,154.76818478720497L114.4,150.33951597248196L115.05,154.9532549317822L115.7,152.02334447649287L116.35000000000001,145.40354528326867L117,146.2890711968564L117.65,141.52285148159297L118.3,149.91318613181693L118.95,139.49511854640744L119.60000000000001,149.51169501065021L120.25,152.04403868903182L120.9,152.54544273735138L121.55000000000001,153.1937822773802L122.19999999999999,149.47872273707512L122.85,143.80158710194087L123.5,151.46249886156892L124.14999999999999,144.74343631305217L124.8,154.9433542361382L125.45,156.41387644644766L126.1,153.95973215178125L126.75,139.1982115814373L127.39999999999999,138.47167666235535L128.05,140.5240689022233L128.7,142.57762718110175L129.35,143.5332932587812L130,152.50749975754638L130.64999999999998,152.08814649045573L131.3,154.75042223587946L131.95,153.63036821808873L132.6,147.36892059948926L133.25,145.58009243254503L133.9,148.52027368625932L134.54999999999998,143.61181418987934L135.20000000000002,149.22867767113456L135.85,154.1842474096539L136.5,154.61638867941917L137.15,140.42635265083268L137.8,152.4413870556341L138.45,153.17317925240016L139.1,156.06338179966752L139.75,133.02599575018033L140.4,141.6420702354588L141.04999999999998,146.64242221431314L141.70000000000002,148.73061498304938L142.35,151.3403233051053L143,144.7192455528724L143.65,141.21202600408412L144.3,130.63448884111634L144.95,138.97230571361797L145.60000000000002,152.1534857620656L146.25,146.52743633473514L146.89999999999998,143.21723239427754L147.55,146.95430432175925L148.2,131.77145994801603L148.85,153.4730259927841L149.5,138.55278222349432L150.15,144.38355857255956L150.79999999999998,141.69462152044372L151.45000000000002,124.69036583027864L152.1,138.3444308959336L152.75,143.24418193277947L153.4,147.50870186884418L154.05,151.64744604695423L154.7,149.17254816345078L155.35,151.4278260748248L156,149.12906340896916L156.65,146.47766224728358L157.29999999999998,143.7564386634237L157.95000000000002,137.72702100920404L158.6,148.06348862136088L159.25,141.87418613164482L159.9,148.88462731560412L160.55,144.7820792854127L161.2,148.3622670831271L161.85000000000002,146.8748981132284L162.5,138.89353751872693L163.14999999999998,142.25478196716946L163.8,150.60716990642263L164.45,147.31938887224092L165.1,151.60996207362678L165.75,131.59515710596273L166.4,151.24187187621138L167.04999999999998,149.64130601610523L167.70000000000002,149.87345551426574L168.35,147.72317496105538L169,134.66900402690436L169.65,141.4183243357886L170.3,147.14718206464L170.95,147.732434356491L171.6,144.00488354104675L172.25,126.79498232574264L172.9,127.23085265434321L173.54999999999998,135.55307805632918L174.20000000000002,143.24055560899933L174.85,139.82112231827418L175.5,149.0271822190183L176.15,121.20065900244253L176.8,144.79126894402208L177.45,139.57910202014716L178.10000000000002,117.13369296921991L178.75,126.41604043867477L179.39999999999998,146.3729760068576L180.05,139.34321848012704L180.7,142.89288033598822L181.35,144.6938364603718L182,126.931395003769L182.65,132.19941621074628L183.29999999999998,140.92934594818928L183.95000000000002,133.87288742081842L184.6,124.78884709393742L185.25,137.265807109215L185.9,139.18718365377842L186.55,143.41104697883273L187.2,135.4623873018089L187.85,144.86978345498892L188.5,134.65309404716473L189.15,113.96209723672322L189.79999999999998,124.68994140671737L190.45000000000002,133.95185455237618L191.1,138.53102104752435L191.75,125.71115755202521L192.4,101.21036304145483L193.05,93.61389803605421L193.7,83.32481334960028L194.35000000000002,100.50472842783624L195,113.2403977671731L195.64999999999998,122.89986029636182L196.3,129.75398772329504L196.95,125.6204895692124L197.6,79.22994924239637L198.25,101.34112994999447L198.9,71.12826680702197L199.54999999999998,109.0710429816365L200.20000000000002,106.15154343344095L200.85,58.354190215205904L201.5,102.14928350876461L202.15,47.6786350578123L202.8,31.402831279908355L203.45,95.71479136265262L204.1,40.913990228266755L204.75,61.35993929596603L205.4,34.111729519062834L206.04999999999998,28.716583983235978L206.70000000000002,79.26012978252687L207.35,37.655967235401846L208,78.28481997414802L208.65,49.542209739496684L209.3,45.49835752842034L209.95,34.81456709831954L210.60000000000002,28.8557458239288L211.25,27.675899211599443L211.89999999999998,27.442289582358228L212.55,27.396034875768464L213.2,27.386876443863713L213.85,27.385063074346533L214.5,27.384704027182153L215.15,27.384632935843598L215.79999999999998,27.384618859758547L216.45000000000002,27.384616072693746L217.1,27.384615520854908L217.75,27.3846154115908L218.4,27.384615389956508L219.05,27.38461538567293L219.7,27.38461538482477L220.35,27.384615384656826L221,27.3846153846236L221.65,27.384615384617007L222.29999999999998,27.3846153846157L222.95000000000002,31.777107692307737L223.6,28.254328861538482L224.25,27.55681865304615L224.9,42.79243470868775L225.55,34.27879438001247L226.2,28.749662825704007L226.85000000000002,27.654894777950915" style="fill: none;" fill="none"></path></g><g><path stroke="rgb(255, 112, 67)" stroke-width="2px" d="M32.5,148.56153846153848L33.15,156.562052138179L33.800000000000004,157.28908367328515L34.45,154.6780717168888L35.1,150.32034745578736L35.75,146.16422452402878L36.400000000000006,150.28316559652242L37.05,150.5496058790422L37.699999999999996,152.79860763133993L38.35,155.44015532486645L39,155.41411998461538L39.65,147.17304188087968L40.3,153.77723152793092L40.95,136.41676876313625L41.6,144.50968944609826L42.25,154.89707235653927L42.9,137.7366203265758L43.550000000000004,145.32008159389443L44.2,123.21196077097476L44.849999999999994,135.8554605403454L45.5,150.43822734083457L46.15,149.48218439810063L46.8,154.78350328005467L47.449999999999996,150.34254903406622L48.1,149.4632400933605L48.75,153.68162923079308L49.4,153.96780874154317L50.050000000000004,146.33761074621017L50.7,153.61181615851885L51.35,150.65961652246366L52,153.9185117637555L52.650000000000006,154.01471148306973L53.3,150.73938979672474L53.949999999999996,141.3058914874438L54.6,139.98712036066772L55.25,151.25629598525836L55.9,145.80073122046576L56.55,139.22991401242146L57.2,148.91012297445945L57.85,133.25683511817374L58.5,138.39340719955226L59.15,149.8426177024344L59.800000000000004,144.97176138200507L60.45,147.3017010613293L61.099999999999994,155.9989521947586L61.75,151.68133099610066L62.4,152.47362661415102L63.05,155.9248703772942L63.699999999999996,154.41197048855042L64.35,154.66147784904066L65,156.35806492180237L65.65,147.90900454682455L66.3,155.02107520796358L66.95,154.7820805834845L67.60000000000001,142.10634426322224L68.25,142.89091770257954L68.9,153.4784324743415L69.55,156.67288347607348L70.2,155.10913862057023L70.85000000000001,153.70139406225752L71.5,149.57922987048084L72.15,148.76304136050905L72.80000000000001,151.34674372784232L73.44999999999999,155.70174756580508L74.1,156.56403832572173L74.75,154.53852574233906L75.39999999999999,145.90155117390623L76.05,152.9764148247411L76.7,152.18099167376027L77.35,152.57255942832762L78,132.33481292065503L78.64999999999999,139.3089698813666L79.3,150.57296065189522L79.95,154.45041543984448L80.6,149.72753610324304L81.25,142.75272907151904L81.9,144.66608651000692L82.55,149.43742359051984L83.2,147.6368406401537L83.85000000000001,152.7709406005966L84.5,155.98373854661043L85.15,156.61987253992118L85.8,155.64770399367362L86.45,151.06272231382428L87.10000000000001,154.54738824890643L87.75,152.492044411745L88.4,145.49634787044857L89.05000000000001,155.6414922629642L89.69999999999999,148.31618469883614L90.35,144.66952764729263L91,152.1834126280101L91.64999999999999,155.31834646957677L92.3,155.93906337020695L92.95,157.16008839345483L93.6,157.4018513480579L94.25,140.4288127207616L94.89999999999999,151.34375107255696L95.55,153.50490886621242L96.2,151.73657195551007L96.85,140.40521047796022L97.5,151.3390778284823L98.15,153.50398356388564L98.8,157.22700413026473L99.45,151.9244852793309L100.10000000000001,142.6386634699229L100.75,145.19256305935244L101.4,148.44354287036717L102.05,146.3419291806404L102.7,149.22017890084373L103.35000000000001,148.14288773005936L104,150.1258302320902L104.65,154.3618836167231L105.30000000000001,155.2006221868804L105.94999999999999,151.5232616545408L106.6,153.54045196144523L107.25,157.23422487298154L107.89999999999999,150.82779190946573L108.55,145.1668258749973L109.2,145.69313921555715L109.85,128.7764415646803L110.5,142.4478431221144L111.14999999999999,147.90008832279403L111.8,155.56837133406708L112.45,154.34138367799142L113.1,149.70594781439615L113.75,153.72968535955812L114.4,151.232016162731L115.05,155.1299699694515L115.7,152.60739559241293L116.35000000000001,153.7551104811439L117,152.33517341372803L117.65,150.40684125899506L118.3,152.2212776462041L118.95,154.77678220471765L119.60000000000001,153.6355874919187L120.25,149.01713863109222L120.9,150.29893191049473L121.55000000000001,146.70929621058565L122.19999999999999,152.03822526508057L122.85,147.6027378332552L123.5,151.11700362944606L124.14999999999999,142.4787821032457L124.8,141.8665373179811L125.45,154.92278977357563L126.1,148.1738816059372L126.75,149.58290548105248L127.39999999999999,153.70532297755608L128.05,146.2856385649407L128.7,148.65997182047363L129.35,143.63947442045378L130,144.841662089096L130.64999999999998,145.6287567859487L131.3,152.92240153592553L131.95,145.58155858103635L132.6,153.46211782981442L133.25,153.9243454841494L133.9,151.81962040586157L134.54999999999998,148.10851560959136L135.20000000000002,142.98122455223756L135.85,150.7510055382661L136.5,153.38754525042285L137.15,155.00770319035297L137.8,147.09257138553605L138.45,145.5253752881823L139.1,148.50943969167548L139.75,122.19626905895174L140.4,148.28276896598013L141.04999999999998,149.604465178341L141.70000000000002,153.7095917976192L142.35,144.6392991759286L143,140.09807354452616L143.65,149.08201856181617L144.3,151.40990121370115L144.95,151.87082197877436L145.60000000000002,155.2564535210281L146.25,142.74933164331742L146.89999999999998,145.21447535768453L147.55,144.60445073620616L148.2,148.87615816884573L148.85,150.82007931743146L149.5,139.67468339715913L150.15,151.7434950049452L150.79999999999998,154.6821812417484L151.45000000000002,153.6168565012508L152.1,146.8171837410938L152.75,135.58774084227502L153.4,71.8694188406166L154.05,120.19902185351901L154.7,131.4154678654583L155.35,143.51943186812997L156,146.4650782791205L156.65,123.43867011465046L157.29999999999998,132.60597975962386L157.95000000000002,141.00984553086707L158.6,147.61536479972708L159.25,125.31361146111519L159.9,148.35094122314695L160.55,144.67640943910618L161.2,146.14509829971226L161.85000000000002,109.64877561718917L162.5,143.05305757220344L163.14999999999998,115.6252900146809L163.8,129.9608074229068L164.45,134.9954860235817L165.1,117.87332161728456L165.75,139.73996383406848L166.4,147.36392822376095L167.04999999999998,117.02790394215083L167.70000000000002,137.37632498054586L168.35,129.32595849999424L169,146.40007824453733L169.65,119.58236933857224L170.3,145.56897066749883L170.95,141.38027157678016L171.6,125.17718607989477L172.25,116.47835976689609L172.9,124.63909984923004L173.54999999999998,139.98146484707064L174.20000000000002,135.88145311664306L174.85,136.71683540940302L175.5,118.7632103341387L176.15,132.2293002615441L176.8,135.44464760563187L177.45,136.08128637976125L178.10000000000002,142.79607931857734L178.75,141.38030062815523L179.39999999999998,150.4340226012978L180.05,133.0095057058262L180.7,92.77232828359975L181.35,118.84718253861428L182,132.79498829649177L182.65,103.71108460578229L183.29999999999998,129.2489793673295L183.95000000000002,135.40360560703894L184.6,141.0147139101937L185.25,146.51820566191066L185.9,131.685112413366L186.55,118.86505225784646L187.2,144.32881880859208L187.85,150.46876766256275L188.5,102.81800061257204L189.15,118.63997950590465L189.79999999999998,109.69337748063066L190.45000000000002,122.74661181808796L191.1,88.5440291399814L191.75,138.32525623125477L192.4,128.96478534917307L193.05,129.30765826836702L193.7,124.4339932602136L194.35000000000002,134.45023835783L195,143.02219334869648L195.64999999999998,140.32694812919576L196.3,129.9101818834269L196.95,128.39672370522624L197.6,137.43110513978866L198.25,148.0048972792166L198.9,142.96070812282335L199.54999999999998,138.66758943908826L200.20000000000002,128.48350578586255L200.85,136.8992264532931L201.5,140.21272376082896L202.15,124.94601161233643L202.8,131.25724876078107L203.45,72.11010448540387L204.1,36.240262226571474L204.75,96.67260269009192L205.4,102.0494676403305L206.04999999999998,60.83634843893927L206.70000000000002,118.0144739139869L207.35,88.15612737343093L208,86.63666706609317L208.65,74.25646007908645L209.3,56.43145601873603L209.95,73.2173821378636L210.60000000000002,130.3490262786816L211.25,131.22892258779433L211.89999999999998,55.083588210844795L212.55,36.16338123497803L213.2,29.12281102298718L213.85,29.37596273639761L214.5,27.778902160268245L215.15,27.462684166194663L215.79999999999998,27.400073003368078L216.45000000000002,29.034860608513043L217.1,27.711363938947102L217.75,27.44931159837307L218.4,27.39742523493939L219.05,42.760874811902596L219.7,30.429114751218236L220.35,31.281795489971984L221,28.156257045475996L221.65,27.537400433465763L222.29999999999998,36.748912978133916L222.95000000000002,33.082177077362815L223.6,39.493963369010146L224.25,39.11631243937168L224.9,29.707491401457133L225.55,37.17859098979619L226.2,29.323822554441193L226.85000000000002,36.00450148116397" style="fill: none;" fill="none"></path></g></g></g></g><g opacity="0.2"><g><g><g><path stroke="rgb(238, 51, 119)" stroke-width="2px" d="M32.5,158.14615384615385L33.15,157.46153846153845L33.800000000000004,158.14615384615385L34.45,158.14615384615385L35.1,158.83076923076922L35.75,150.6153846153846L36.400000000000006,152.66923076923078L37.05,154.72307692307692L37.699999999999996,149.24615384615385L38.35,156.77692307692308L39,155.40769230769232L39.65,156.09230769230768L40.3,155.40769230769232L40.95,89L41.6,150.6153846153846L42.25,141.03076923076924L42.9,139.66153846153847L43.550000000000004,144.45384615384614L44.2,145.13846153846154L44.849999999999994,143.76923076923077L45.5,141.7153846153846L46.15,140.34615384615384L46.8,156.09230769230768L47.449999999999996,151.98461538461538L48.1,156.09230769230768L48.75,142.4L49.4,154.03846153846155L50.050000000000004,154.03846153846155L50.7,138.2923076923077L51.35,140.34615384615384L52,129.3923076923077L52.650000000000006,137.6076923076923L53.3,146.5076923076923L53.949999999999996,149.93076923076924L54.6,136.23846153846154L55.25,137.6076923076923L55.9,148.56153846153848L56.55,111.59230769230768L57.2,154.72307692307692L57.85,130.0769230769231L58.5,154.03846153846155L59.15,146.5076923076923L59.800000000000004,156.77692307692308L60.45,151.3L61.099999999999994,138.97692307692307L61.75,149.93076923076924L62.4,149.93076923076924L63.05,148.56153846153848L63.699999999999996,129.3923076923077L64.35,123.91538461538462L65,149.24615384615385L65.65,133.5L66.3,147.19230769230768L66.95,143.76923076923077L67.60000000000001,155.40769230769232L68.25,143.76923076923077L68.9,156.77692307692308L69.55,151.98461538461538L70.2,150.6153846153846L70.85000000000001,140.34615384615384L71.5,152.66923076923078L72.15,156.09230769230768L72.80000000000001,141.03076923076924L73.44999999999999,145.82307692307694L74.1,156.77692307692308L74.75,157.46153846153845L75.39999999999999,154.72307692307692L76.05,148.56153846153848L76.7,154.03846153846155L77.35,150.6153846153846L78,154.03846153846155L78.64999999999999,156.77692307692308L79.3,143.08461538461538L79.95,146.5076923076923L80.6,147.87692307692308L81.25,144.45384615384614L81.9,156.09230769230768L82.55,149.24615384615385L83.2,123.23076923076923L83.85000000000001,149.24615384615385L84.5,151.98461538461538L85.15,158.14615384615385L85.8,130.0769230769231L86.45,145.13846153846154L87.10000000000001,134.18461538461537L87.75,145.82307692307694L88.4,121.86153846153846L89.05000000000001,147.87692307692308L89.69999999999999,138.2923076923077L90.35,140.34615384615384L91,132.81538461538463L91.64999999999999,141.7153846153846L92.3,132.13076923076923L92.95,145.13846153846154L93.6,147.19230769230768L94.25,156.77692307692308L94.89999999999999,115.7L95.55,118.43846153846155L96.2,146.5076923076923L96.85,137.6076923076923L97.5,144.45384615384614L98.15,147.87692307692308L98.8,138.97692307692307L99.45,129.3923076923077L100.10000000000001,151.3L100.75,139.66153846153847L101.4,132.13076923076923L102.05,139.66153846153847L102.7,137.6076923076923L103.35000000000001,147.87692307692308L104,133.5L104.65,141.03076923076924L105.30000000000001,121.17692307692309L105.94999999999999,138.2923076923077L106.6,153.35384615384615L107.25,139.66153846153847L107.89999999999999,147.87692307692308L108.55,152.66923076923078L109.2,121.86153846153846L109.85,136.9230769230769L110.5,142.4L111.14999999999999,142.4L111.8,127.33846153846153L112.45,134.18461538461537L113.1,106.8L113.75,94.47692307692307L114.4,132.81538461538463L115.05,150.6153846153846L115.7,140.34615384615384L116.35000000000001,140.34615384615384L117,27.384615384615387L117.65,141.7153846153846L118.3,115.7L118.95,154.03846153846155L119.60000000000001,131.44615384615383L120.25,155.40769230769232L120.9,132.81538461538463L121.55000000000001,136.23846153846154L122.19999999999999,148.56153846153848L122.85,136.9230769230769L123.5,97.89999999999999L124.14999999999999,128.02307692307693L124.8,104.74615384615385L125.45,140.34615384615384L126.1,118.43846153846155L126.75,94.47692307692307L127.39999999999999,112.27692307692307L128.05,123.23076923076923L128.7,62.3L129.35,149.24615384615385L130,120.49230769230769L130.64999999999998,80.78461538461539L131.3,138.97692307692307L131.95,134.18461538461537L132.6,152.66923076923078L133.25,105.43076923076923L133.9,154.03846153846155L134.54999999999998,71.2L135.20000000000002,140.34615384615384L135.85,27.384615384615387L136.5,27.384615384615387L137.15,27.384615384615387L137.8,60.93076923076923L138.45,27.384615384615387L139.1,27.384615384615387L139.75,62.3L140.4,27.384615384615387L141.04999999999998,27.384615384615387L141.70000000000002,127.33846153846153L142.35,27.384615384615387L143,27.384615384615387L143.65,27.384615384615387L144.3,27.384615384615387L144.95,27.384615384615387L145.60000000000002,27.384615384615387L146.25,27.384615384615387L146.89999999999998,27.384615384615387L147.55,27.384615384615387L148.2,27.384615384615387L148.85,27.384615384615387L149.5,27.384615384615387L150.15,27.384615384615387L150.79999999999998,27.384615384615387L151.45000000000002,27.384615384615387L152.1,27.384615384615387L152.75,27.384615384615387L153.4,27.384615384615387L154.05,27.384615384615387L154.7,27.384615384615387L155.35,27.384615384615387L156,27.384615384615387L156.65,27.384615384615387L157.29999999999998,27.384615384615387L157.95000000000002,27.384615384615387L158.6,27.384615384615387L159.25,27.384615384615387L159.9,27.384615384615387L160.55,27.384615384615387L161.2,27.384615384615387L161.85000000000002,27.384615384615387L162.5,34.230769230769226L163.14999999999998,39.7076923076923L163.8,33.54615384615386L164.45,27.384615384615387L165.1,46.55384615384614L165.75,27.384615384615387L166.4,27.384615384615387L167.04999999999998,96.53076923076924L167.70000000000002,40.392307692307696L168.35,27.384615384615387L169,27.384615384615387L169.65,53.400000000000006L170.3,27.384615384615387L170.95,27.384615384615387L171.6,27.384615384615387L172.25,31.49230769230769L172.9,27.384615384615387L173.54999999999998,27.384615384615387L174.20000000000002,27.384615384615387L174.85,27.384615384615387L175.5,27.384615384615387L176.15,27.384615384615387L176.8,27.384615384615387L177.45,27.384615384615387L178.10000000000002,27.384615384615387L178.75,27.384615384615387L179.39999999999998,27.384615384615387L180.05,27.384615384615387L180.7,27.384615384615387L181.35,27.384615384615387L182,33.54615384615386" style="fill: none;" fill="none"></path></g><g><path stroke="rgb(51, 187, 238)" stroke-width="2px" d="M32.5,158.14615384615385L33.15,157.46153846153845L33.800000000000004,157.46153846153845L34.45,156.77692307692308L35.1,158.14615384615385L35.75,158.14615384615385L36.400000000000006,154.72307692307692L37.05,152.66923076923078L37.699999999999996,145.82307692307694L38.35,150.6153846153846L39,154.72307692307692L39.65,137.6076923076923L40.3,147.19230769230768L40.95,154.72307692307692L41.6,156.09230769230768L42.25,140.34615384615384L42.9,145.82307692307694L43.550000000000004,141.7153846153846L44.2,156.09230769230768L44.849999999999994,155.40769230769232L45.5,155.40769230769232L46.15,151.98461538461538L46.8,156.09230769230768L47.449999999999996,155.40769230769232L48.1,153.35384615384615L48.75,158.14615384615385L49.4,158.14615384615385L50.050000000000004,158.14615384615385L50.7,157.46153846153845L51.35,157.46153846153845L52,157.46153846153845L52.650000000000006,151.3L53.3,156.77692307692308L53.949999999999996,156.77692307692308L54.6,154.72307692307692L55.25,154.72307692307692L55.9,151.98461538461538L56.55,157.46153846153845L57.2,154.72307692307692L57.85,156.77692307692308L58.5,155.40769230769232L59.15,156.77692307692308L59.800000000000004,156.77692307692308L60.45,158.83076923076922L61.099999999999994,158.14615384615385L61.75,143.76923076923077L62.4,155.40769230769232L63.05,155.40769230769232L63.699999999999996,151.98461538461538L64.35,156.09230769230768L65,156.09230769230768L65.65,156.09230769230768L66.3,156.09230769230768L66.95,149.24615384615385L67.60000000000001,151.3L68.25,158.14615384615385L68.9,143.76923076923077L69.55,151.98461538461538L70.2,132.81538461538463L70.85000000000001,154.03846153846155L71.5,154.72307692307692L72.15,151.3L72.80000000000001,154.72307692307692L73.44999999999999,150.6153846153846L74.1,152.66923076923078L74.75,151.3L75.39999999999999,152.66923076923078L76.05,143.76923076923077L76.7,147.87692307692308L77.35,151.3L78,154.72307692307692L78.64999999999999,138.2923076923077L79.3,154.03846153846155L79.95,147.87692307692308L80.6,145.13846153846154L81.25,138.2923076923077L81.9,123.23076923076923L82.55,154.72307692307692L83.2,139.66153846153847L83.85000000000001,145.13846153846154L84.5,140.34615384615384L85.15,151.3L85.8,93.7923076923077L86.45,144.45384615384614L87.10000000000001,156.77692307692308L87.75,151.98461538461538L88.4,156.77692307692308L89.05000000000001,146.5076923076923L89.69999999999999,152.66923076923078L90.35,154.03846153846155L91,145.82307692307694L91.64999999999999,157.46153846153845L92.3,149.24615384615385L92.95,151.98461538461538L93.6,156.77692307692308L94.25,136.9230769230769L94.89999999999999,151.98461538461538L95.55,152.66923076923078L96.2,151.3L96.85,155.40769230769232L97.5,154.72307692307692L98.15,151.98461538461538L98.8,157.46153846153845L99.45,156.77692307692308L100.10000000000001,143.76923076923077L100.75,156.77692307692308L101.4,149.24615384615385L102.05,154.03846153846155L102.7,155.40769230769232L103.35000000000001,149.93076923076924L104,144.45384615384614L104.65,147.87692307692308L105.30000000000001,157.46153846153845L105.94999999999999,156.77692307692308L106.6,141.03076923076924L107.25,150.6153846153846L107.89999999999999,152.66923076923078L108.55,154.72307692307692L109.2,153.35384615384615L109.85,157.46153846153845L110.5,143.08461538461538L111.14999999999999,152.66923076923078L111.8,153.35384615384615L112.45,154.72307692307692L113.1,145.82307692307694L113.75,156.77692307692308L114.4,155.40769230769232L115.05,134.86923076923077L115.7,153.35384615384615L116.35000000000001,137.6076923076923L117,149.93076923076924L117.65,123.23076923076923L118.3,156.09230769230768L118.95,132.13076923076923L119.60000000000001,113.64615384615385L120.25,143.76923076923077L120.9,150.6153846153846L121.55000000000001,143.76923076923077L122.19999999999999,156.09230769230768L122.85,150.6153846153846L123.5,148.56153846153848L124.14999999999999,142.4L124.8,137.6076923076923L125.45,147.19230769230768L126.1,154.72307692307692L126.75,137.6076923076923L127.39999999999999,158.14615384615385L128.05,150.6153846153846L128.7,157.46153846153845L129.35,150.6153846153846L130,147.19230769230768L130.64999999999998,152.66923076923078L131.3,156.09230769230768L131.95,156.77692307692308L132.6,144.45384615384614L133.25,147.19230769230768L133.9,153.35384615384615L134.54999999999998,145.13846153846154L135.20000000000002,154.72307692307692L135.85,155.40769230769232L136.5,151.3L137.15,150.6153846153846L137.8,143.76923076923077L138.45,154.03846153846155L139.1,153.35384615384615L139.75,147.87692307692308L140.4,147.19230769230768L141.04999999999998,111.59230769230768L141.70000000000002,137.6076923076923L142.35,156.09230769230768L143,149.24615384615385L143.65,147.87692307692308L144.3,134.86923076923077L144.95,135.55384615384617L145.60000000000002,110.22307692307693L146.25,146.5076923076923L146.89999999999998,152.66923076923078L147.55,152.66923076923078L148.2,130.76153846153846L148.85,127.33846153846153L149.5,145.13846153846154L150.15,129.3923076923077L150.79999999999998,145.82307692307694L151.45000000000002,117.06923076923077L152.1,121.86153846153846L152.75,142.4L153.4,151.3L154.05,152.66923076923078L154.7,128.02307692307693L155.35,148.56153846153848L156,148.56153846153848L156.65,63.669230769230765L157.29999999999998,110.22307692307693L157.95000000000002,114.33076923076922L158.6,129.3923076923077L159.25,140.34615384615384L159.9,145.82307692307694L160.55,140.34615384615384L161.2,145.13846153846154L161.85000000000002,151.3L162.5,138.2923076923077L163.14999999999998,121.86153846153846L163.8,133.5L164.45,125.28461538461539L165.1,108.85384615384615L165.75,136.9230769230769L166.4,135.55384615384617L167.04999999999998,146.5076923076923L167.70000000000002,149.93076923076924L168.35,133.5L169,141.03076923076924L169.65,128.02307692307693L170.3,134.86923076923077L170.95,151.98461538461538L171.6,114.33076923076922L172.25,149.93076923076924L172.9,141.7153846153846L173.54999999999998,138.2923076923077L174.20000000000002,147.87692307692308L174.85,126.65384615384616L175.5,113.64615384615385L176.15,98.58461538461538L176.8,147.87692307692308L177.45,130.0769230769231L178.10000000000002,153.35384615384615L178.75,125.96923076923076L179.39999999999998,143.76923076923077L180.05,132.13076923076923L180.7,138.2923076923077L181.35,128.02307692307693L182,147.19230769230768L182.65,93.1076923076923L183.29999999999998,146.5076923076923L183.95000000000002,144.45384615384614L184.6,123.91538461538462L185.25,118.43846153846155L185.9,103.37692307692308L186.55,114.33076923076922L187.2,114.33076923076922L187.85,90.36923076923077L188.5,114.33076923076922L189.15,113.64615384615385L189.79999999999998,119.12307692307692L190.45000000000002,140.34615384615384L191.1,101.32307692307693L191.75,125.96923076923076L192.4,62.3L193.05,130.76153846153846L193.7,101.32307692307693L194.35000000000002,147.19230769230768L195,62.98461538461538L195.64999999999998,140.34615384615384L196.3,36.28461538461539L196.95,69.14615384615384L197.6,76.67692307692307L198.25,80.78461538461539L198.9,45.18461538461537L199.54999999999998,27.384615384615387L200.20000000000002,27.384615384615387L200.85,27.384615384615387L201.5,27.384615384615387L202.15,27.384615384615387L202.8,27.384615384615387L203.45,27.384615384615387L204.1,27.384615384615387L204.75,27.384615384615387L205.4,27.384615384615387L206.04999999999998,27.384615384615387L206.70000000000002,27.384615384615387L207.35,27.384615384615387L208,36.96923076923076L208.65,27.384615384615387L209.3,27.384615384615387L209.95,27.384615384615387L210.60000000000002,27.384615384615387L211.25,27.384615384615387L211.89999999999998,58.87692307692309L212.55,27.384615384615387L213.2,27.384615384615387L213.85,27.384615384615387L214.5,27.384615384615387L215.15,58.87692307692309L215.79999999999998,27.384615384615387L216.45000000000002,27.384615384615387L217.1,41.761538461538464L217.75,35.599999999999994L218.4,27.384615384615387L219.05,69.14615384615384L219.7,73.25384615384615L220.35,32.86153846153846L221,27.384615384615387L221.65,38.33846153846153L222.29999999999998,66.40769230769232L222.95000000000002,55.45384615384616L223.6,73.93846153846154L224.25,34.915384615384596L224.9,54.08461538461539L225.55,54.08461538461539L226.2,27.384615384615387L226.85000000000002,52.71538461538461" style="fill: none;" fill="none"></path></g><g><path stroke="rgb(204, 51, 17)" stroke-width="2px" d="M32.5,157.46153846153845L33.15,158.14615384615385L33.800000000000004,157.46153846153845L34.45,157.46153846153845L35.1,156.09230769230768L35.75,158.14615384615385L36.400000000000006,156.09230769230768L37.05,154.72307692307692L37.699999999999996,138.97692307692307L38.35,147.87692307692308L39,149.93076923076924L39.65,158.83076923076922L40.3,154.03846153846155L40.95,148.56153846153848L41.6,154.72307692307692L42.25,154.03846153846155L42.9,156.77692307692308L43.550000000000004,155.40769230769232L44.2,152.66923076923078L44.849999999999994,156.09230769230768L45.5,157.46153846153845L46.15,155.40769230769232L46.8,140.34615384615384L47.449999999999996,154.03846153846155L48.1,154.72307692307692L48.75,155.40769230769232L49.4,156.77692307692308L50.050000000000004,154.72307692307692L50.7,157.46153846153845L51.35,156.77692307692308L52,154.72307692307692L52.650000000000006,156.77692307692308L53.3,155.40769230769232L53.949999999999996,141.03076923076924L54.6,158.83076923076922L55.25,156.77692307692308L55.9,155.40769230769232L56.55,158.14615384615385L57.2,158.14615384615385L57.85,153.35384615384615L58.5,155.40769230769232L59.15,150.6153846153846L59.800000000000004,157.46153846153845L60.45,151.3L61.099999999999994,156.77692307692308L61.75,156.77692307692308L62.4,149.24615384615385L63.05,154.72307692307692L63.699999999999996,157.46153846153845L64.35,157.46153846153845L65,156.09230769230768L65.65,154.72307692307692L66.3,156.09230769230768L66.95,154.03846153846155L67.60000000000001,150.6153846153846L68.25,154.72307692307692L68.9,152.66923076923078L69.55,157.46153846153845L70.2,149.93076923076924L70.85000000000001,156.77692307692308L71.5,152.66923076923078L72.15,156.77692307692308L72.80000000000001,143.76923076923077L73.44999999999999,158.14615384615385L74.1,157.46153846153845L74.75,151.3L75.39999999999999,151.3L76.05,152.66923076923078L76.7,143.08461538461538L77.35,156.77692307692308L78,157.46153846153845L78.64999999999999,154.72307692307692L79.3,157.46153846153845L79.95,156.09230769230768L80.6,156.77692307692308L81.25,157.46153846153845L81.9,157.46153846153845L82.55,156.77692307692308L83.2,156.09230769230768L83.85000000000001,154.72307692307692L84.5,154.72307692307692L85.15,156.77692307692308L85.8,156.77692307692308L86.45,150.6153846153846L87.10000000000001,157.46153846153845L87.75,153.35384615384615L88.4,156.77692307692308L89.05000000000001,156.77692307692308L89.69999999999999,154.03846153846155L90.35,154.03846153846155L91,155.40769230769232L91.64999999999999,154.03846153846155L92.3,152.66923076923078L92.95,157.46153846153845L93.6,152.66923076923078L94.25,149.93076923076924L94.89999999999999,147.87692307692308L95.55,145.82307692307694L96.2,149.93076923076924L96.85,138.97692307692307L97.5,152.66923076923078L98.15,154.03846153846155L98.8,149.93076923076924L99.45,151.3L100.10000000000001,158.14615384615385L100.75,156.09230769230768L101.4,157.46153846153845L102.05,145.13846153846154L102.7,154.03846153846155L103.35000000000001,151.3L104,149.93076923076924L104.65,151.3L105.30000000000001,152.66923076923078L105.94999999999999,110.90769230769232L106.6,153.35384615384615L107.25,150.6153846153846L107.89999999999999,154.03846153846155L108.55,151.3L109.2,148.56153846153848L109.85,152.66923076923078L110.5,154.72307692307692L111.14999999999999,150.6153846153846L111.8,148.56153846153848L112.45,155.40769230769232L113.1,154.03846153846155L113.75,129.3923076923077L114.4,135.55384615384617L115.05,155.40769230769232L115.7,156.09230769230768L116.35000000000001,152.66923076923078L117,149.24615384615385L117.65,153.35384615384615L118.3,147.19230769230768L118.95,154.72307692307692L119.60000000000001,151.98461538461538L120.25,134.86923076923077L120.9,155.40769230769232L121.55000000000001,149.93076923076924L122.19999999999999,147.87692307692308L122.85,143.76923076923077L123.5,137.6076923076923L124.14999999999999,149.93076923076924L124.8,150.6153846153846L125.45,150.6153846153846L126.1,155.40769230769232L126.75,148.56153846153848L127.39999999999999,149.93076923076924L128.05,150.6153846153846L128.7,149.93076923076924L129.35,151.3L130,154.72307692307692L130.64999999999998,149.24615384615385L131.3,154.03846153846155L131.95,151.98461538461538L132.6,149.24615384615385L133.25,151.98461538461538L133.9,152.66923076923078L134.54999999999998,154.03846153846155L135.20000000000002,156.77692307692308L135.85,149.24615384615385L136.5,151.3L137.15,154.03846153846155L137.8,141.03076923076924L138.45,151.98461538461538L139.1,151.3L139.75,153.35384615384615L140.4,154.03846153846155L141.04999999999998,150.6153846153846L141.70000000000002,134.18461538461537L142.35,151.3L143,147.19230769230768L143.65,155.40769230769232L144.3,147.19230769230768L144.95,117.06923076923077L145.60000000000002,148.56153846153848L146.25,128.7076923076923L146.89999999999998,153.35384615384615L147.55,156.09230769230768L148.2,156.09230769230768L148.85,149.93076923076924L149.5,144.45384615384614L150.15,151.98461538461538L150.79999999999998,154.72307692307692L151.45000000000002,123.23076923076923L152.1,131.44615384615383L152.75,132.13076923076923L153.4,146.5076923076923L154.05,153.35384615384615L154.7,135.55384615384617L155.35,130.0769230769231L156,151.98461538461538L156.65,151.3L157.29999999999998,141.7153846153846L157.95000000000002,142.4L158.6,154.03846153846155L159.25,121.17692307692309L159.9,115.7L160.55,125.96923076923076L161.2,145.13846153846154L161.85000000000002,141.7153846153846L162.5,109.53846153846153L163.14999999999998,136.23846153846154L163.8,152.66923076923078L164.45,128.7076923076923L165.1,143.76923076923077L165.75,131.44615384615383L166.4,147.87692307692308L167.04999999999998,138.97692307692307L167.70000000000002,155.40769230769232L168.35,145.82307692307694L169,145.82307692307694L169.65,122.54615384615384L170.3,151.98461538461538L170.95,140.34615384615384L171.6,136.23846153846154L172.25,125.96923076923076L172.9,122.54615384615384L173.54999999999998,115.01538461538462L174.20000000000002,95.16153846153846L174.85,99.26923076923077L175.5,123.91538461538462L176.15,134.18461538461537L176.8,146.5076923076923L177.45,128.7076923076923L178.10000000000002,115.7L178.75,132.13076923076923L179.39999999999998,149.24615384615385L180.05,138.97692307692307L180.7,141.03076923076924L181.35,130.0769230769231L182,106.11538461538461L182.65,123.91538461538462L183.29999999999998,142.4L183.95000000000002,152.66923076923078L184.6,120.49230769230769L185.25,128.02307692307693L185.9,131.44615384615383L186.55,139.66153846153847L187.2,113.64615384615385L187.85,151.3L188.5,130.76153846153846L189.15,121.86153846153846L189.79999999999998,144.45384615384614L190.45000000000002,121.86153846153846L191.1,131.44615384615383L191.75,123.23076923076923L192.4,118.43846153846155L193.05,134.18461538461537L193.7,135.55384615384617L194.35000000000002,79.41538461538461L195,112.96153846153847L195.64999999999998,112.96153846153847L196.3,151.3L196.95,98.58461538461538L197.6,126.65384615384616L198.25,141.03076923076924L198.9,95.16153846153846L199.54999999999998,100.63846153846154L200.20000000000002,113.64615384615385L200.85,102.00769230769231L201.5,123.23076923076923L202.15,103.37692307692308L202.8,120.49230769230769L203.45,102.00769230769231L204.1,100.63846153846154L204.75,99.26923076923077L205.4,89.68461538461538L206.04999999999998,27.384615384615387L206.70000000000002,93.7923076923077L207.35,97.89999999999999L208,27.384615384615387L208.65,67.77692307692307L209.3,102.00769230769231L209.95,71.2L210.60000000000002,65.03846153846155L211.25,34.230769230769226L211.89999999999998,27.384615384615387L212.55,27.384615384615387L213.2,27.384615384615387L213.85,62.98461538461538L214.5,27.384615384615387L215.15,62.3L215.79999999999998,62.3L216.45000000000002,69.14615384615384L217.1,48.607692307692304L217.75,58.19230769230768L218.4,57.507692307692295L219.05,27.384615384615387L219.7,27.384615384615387L220.35,47.238461538461536L221,36.96923076923076L221.65,27.384615384615387L222.29999999999998,49.97692307692307L222.95000000000002,45.18461538461537L223.6,44.5L224.25,54.08461538461539L224.9,27.384615384615387L225.55,51.34615384615384L226.2,39.02307692307693L226.85000000000002,32.17692307692309" style="fill: none;" fill="none"></path></g><g><path stroke="rgb(0, 119, 187)" stroke-width="2px" d="M32.5,135.55384615384617L33.15,158.14615384615385L33.800000000000004,154.03846153846155L34.45,154.03846153846155L35.1,141.03076923076924L35.75,151.3L36.400000000000006,149.24615384615385L37.05,151.3L37.699999999999996,143.76923076923077L38.35,149.93076923076924L39,156.77692307692308L39.65,151.3L40.3,147.87692307692308L40.95,150.6153846153846L41.6,154.72307692307692L42.25,147.19230769230768L42.9,153.35384615384615L43.550000000000004,151.3L44.2,157.46153846153845L44.849999999999994,150.6153846153846L45.5,154.72307692307692L46.15,148.56153846153848L46.8,154.72307692307692L47.449999999999996,145.82307692307694L48.1,157.46153846153845L48.75,154.72307692307692L49.4,156.77692307692308L50.050000000000004,151.3L50.7,152.66923076923078L51.35,155.40769230769232L52,155.40769230769232L52.650000000000006,154.72307692307692L53.3,153.35384615384615L53.949999999999996,143.76923076923077L54.6,157.46153846153845L55.25,154.72307692307692L55.9,153.35384615384615L56.55,151.98461538461538L57.2,154.72307692307692L57.85,149.93076923076924L58.5,156.77692307692308L59.15,156.77692307692308L59.800000000000004,157.46153846153845L60.45,150.6153846153846L61.099999999999994,153.35384615384615L61.75,122.54615384615384L62.4,153.35384615384615L63.05,154.03846153846155L63.699999999999996,153.35384615384615L64.35,151.3L65,156.09230769230768L65.65,154.03846153846155L66.3,143.76923076923077L66.95,149.24615384615385L67.60000000000001,150.6153846153846L68.25,154.03846153846155L68.9,144.45384615384614L69.55,147.87692307692308L70.2,155.40769230769232L70.85000000000001,154.72307692307692L71.5,155.40769230769232L72.15,154.72307692307692L72.80000000000001,155.40769230769232L73.44999999999999,150.6153846153846L74.1,153.35384615384615L74.75,145.82307692307694L75.39999999999999,157.46153846153845L76.05,150.6153846153846L76.7,156.77692307692308L77.35,147.19230769230768L78,143.76923076923077L78.64999999999999,149.93076923076924L79.3,149.93076923076924L79.95,149.93076923076924L80.6,151.98461538461538L81.25,151.3L81.9,156.09230769230768L82.55,143.08461538461538L83.2,145.82307692307694L83.85000000000001,154.03846153846155L84.5,154.03846153846155L85.15,138.97692307692307L85.8,157.46153846153845L86.45,154.72307692307692L87.10000000000001,157.46153846153845L87.75,155.40769230769232L88.4,139.66153846153847L89.05000000000001,149.24615384615385L89.69999999999999,141.03076923076924L90.35,150.6153846153846L91,147.19230769230768L91.64999999999999,147.87692307692308L92.3,155.40769230769232L92.95,141.7153846153846L93.6,151.98461538461538L94.25,154.72307692307692L94.89999999999999,143.08461538461538L95.55,125.96923076923076L96.2,141.03076923076924L96.85,149.24615384615385L97.5,144.45384615384614L98.15,149.93076923076924L98.8,153.35384615384615L99.45,153.35384615384615L100.10000000000001,137.6076923076923L100.75,150.6153846153846L101.4,148.56153846153848L102.05,145.13846153846154L102.7,154.72307692307692L103.35000000000001,108.85384615384615L104,153.35384615384615L104.65,156.09230769230768L105.30000000000001,149.93076923076924L105.94999999999999,138.2923076923077L106.6,153.35384615384615L107.25,142.4L107.89999999999999,143.08461538461538L108.55,153.35384615384615L109.2,143.76923076923077L109.85,154.72307692307692L110.5,150.6153846153846L111.14999999999999,155.40769230769232L111.8,156.09230769230768L112.45,141.7153846153846L113.1,150.6153846153846L113.75,156.09230769230768L114.4,149.24615384615385L115.05,156.09230769230768L115.7,151.3L116.35000000000001,143.76923076923077L117,146.5076923076923L117.65,140.34615384615384L118.3,151.98461538461538L118.95,136.9230769230769L119.60000000000001,151.98461538461538L120.25,152.66923076923078L120.9,152.66923076923078L121.55000000000001,153.35384615384615L122.19999999999999,148.56153846153848L122.85,142.4L123.5,153.35384615384615L124.14999999999999,143.08461538461538L124.8,157.46153846153845L125.45,156.77692307692308L126.1,153.35384615384615L126.75,135.55384615384617L127.39999999999999,138.2923076923077L128.05,141.03076923076924L128.7,143.08461538461538L129.35,143.76923076923077L130,154.72307692307692L130.64999999999998,151.98461538461538L131.3,155.40769230769232L131.95,153.35384615384615L132.6,145.82307692307694L133.25,145.13846153846154L133.9,149.24615384615385L134.54999999999998,142.4L135.20000000000002,150.6153846153846L135.85,155.40769230769232L136.5,154.72307692307692L137.15,136.9230769230769L137.8,155.40769230769232L138.45,153.35384615384615L139.1,156.77692307692308L139.75,127.33846153846153L140.4,143.76923076923077L141.04999999999998,147.87692307692308L141.70000000000002,149.24615384615385L142.35,151.98461538461538L143,143.08461538461538L143.65,140.34615384615384L144.3,128.02307692307693L144.95,141.03076923076924L145.60000000000002,155.40769230769232L146.25,145.13846153846154L146.89999999999998,142.4L147.55,147.87692307692308L148.2,128.02307692307693L148.85,158.83076923076922L149.5,134.86923076923077L150.15,145.82307692307694L150.79999999999998,141.03076923076924L151.45000000000002,120.49230769230769L152.1,141.7153846153846L152.75,144.45384615384614L153.4,148.56153846153848L154.05,152.66923076923078L154.7,148.56153846153848L155.35,151.98461538461538L156,148.56153846153848L156.65,145.82307692307694L157.29999999999998,143.08461538461538L157.95000000000002,136.23846153846154L158.6,150.6153846153846L159.25,140.34615384615384L159.9,150.6153846153846L160.55,143.76923076923077L161.2,149.24615384615385L161.85000000000002,146.5076923076923L162.5,136.9230769230769L163.14999999999998,143.08461538461538L163.8,152.66923076923078L164.45,146.5076923076923L165.1,152.66923076923078L165.75,126.65384615384616L166.4,156.09230769230768L167.04999999999998,149.24615384615385L167.70000000000002,149.93076923076924L168.35,147.19230769230768L169,131.44615384615383L169.65,143.08461538461538L170.3,148.56153846153848L170.95,147.87692307692308L171.6,143.08461538461538L172.25,122.54615384615384L172.9,127.33846153846153L173.54999999999998,137.6076923076923L174.20000000000002,145.13846153846154L174.85,138.97692307692307L175.5,151.3L176.15,114.33076923076922L176.8,150.6153846153846L177.45,138.2923076923077L178.10000000000002,111.59230769230768L178.75,128.7076923076923L179.39999999999998,151.3L180.05,137.6076923076923L180.7,143.76923076923077L181.35,145.13846153846154L182,122.54615384615384L182.65,133.5L183.29999999999998,143.08461538461538L183.95000000000002,132.13076923076923L184.6,122.54615384615384L185.25,140.34615384615384L185.9,139.66153846153847L186.55,144.45384615384614L187.2,133.5L187.85,147.19230769230768L188.5,132.13076923076923L189.15,108.85384615384615L189.79999999999998,127.33846153846153L190.45000000000002,136.23846153846154L191.1,139.66153846153847L191.75,122.54615384615384L192.4,95.16153846153846L193.05,91.73846153846154L193.7,80.78461538461539L194.35000000000002,104.74615384615385L195,116.38461538461539L195.64999999999998,125.28461538461539L196.3,131.44615384615383L196.95,124.6L197.6,67.77692307692307L198.25,106.8L198.9,63.669230769230765L199.54999999999998,118.43846153846155L200.20000000000002,105.43076923076923L200.85,46.55384615384614L201.5,112.96153846153847L202.15,34.230769230769226L202.8,27.384615384615387L203.45,111.59230769230768L204.1,27.384615384615387L204.75,66.40769230769232L205.4,27.384615384615387L206.04999999999998,27.384615384615387L206.70000000000002,91.73846153846154L207.35,27.384615384615387L208,88.31538461538462L208.65,42.44615384615386L209.3,44.5L209.95,32.17692307692309L210.60000000000002,27.384615384615387L211.25,27.384615384615387L211.89999999999998,27.384615384615387L212.55,27.384615384615387L213.2,27.384615384615387L213.85,27.384615384615387L214.5,27.384615384615387L215.15,27.384615384615387L215.79999999999998,27.384615384615387L216.45000000000002,27.384615384615387L217.1,27.384615384615387L217.75,27.384615384615387L218.4,27.384615384615387L219.05,27.384615384615387L219.7,27.384615384615387L220.35,27.384615384615387L221,27.384615384615387L221.65,27.384615384615387L222.29999999999998,27.384615384615387L222.95000000000002,32.86153846153846L223.6,27.384615384615387L224.25,27.384615384615387L224.9,46.55384615384614L225.55,32.17692307692309L226.2,27.384615384615387L226.85000000000002,27.384615384615387" style="fill: none;" fill="none"></path></g><g><path stroke="rgb(255, 112, 67)" stroke-width="2px" d="M32.5,148.56153846153848L33.15,158.14615384615385L33.800000000000004,157.46153846153845L34.45,154.03846153846155L35.1,149.24615384615385L35.75,145.13846153846154L36.400000000000006,151.3L37.05,150.6153846153846L37.699999999999996,153.35384615384615L38.35,156.09230769230768L39,155.40769230769232L39.65,145.13846153846154L40.3,155.40769230769232L40.95,132.13076923076923L41.6,146.5076923076923L42.25,157.46153846153845L42.9,133.5L43.550000000000004,147.19230769230768L44.2,117.75384615384615L44.849999999999994,138.97692307692307L45.5,154.03846153846155L46.15,149.24615384615385L46.8,156.09230769230768L47.449999999999996,149.24615384615385L48.1,149.24615384615385L48.75,154.72307692307692L49.4,154.03846153846155L50.050000000000004,144.45384615384614L50.7,155.40769230769232L51.35,149.93076923076924L52,154.72307692307692L52.650000000000006,154.03846153846155L53.3,149.93076923076924L53.949999999999996,138.97692307692307L54.6,139.66153846153847L55.25,154.03846153846155L55.9,144.45384615384614L56.55,137.6076923076923L57.2,151.3L57.85,129.3923076923077L58.5,139.66153846153847L59.15,152.66923076923078L59.800000000000004,143.76923076923077L60.45,147.87692307692308L61.099999999999994,158.14615384615385L61.75,150.6153846153846L62.4,152.66923076923078L63.05,156.77692307692308L63.699999999999996,154.03846153846155L64.35,154.72307692307692L65,156.77692307692308L65.65,145.82307692307694L66.3,156.77692307692308L66.95,154.72307692307692L67.60000000000001,138.97692307692307L68.25,143.08461538461538L68.9,156.09230769230768L69.55,157.46153846153845L70.2,154.72307692307692L70.85000000000001,153.35384615384615L71.5,148.56153846153848L72.15,148.56153846153848L72.80000000000001,151.98461538461538L73.44999999999999,156.77692307692308L74.1,156.77692307692308L74.75,154.03846153846155L75.39999999999999,143.76923076923077L76.05,154.72307692307692L76.7,151.98461538461538L77.35,152.66923076923078L78,127.33846153846153L78.64999999999999,141.03076923076924L79.3,153.35384615384615L79.95,155.40769230769232L80.6,148.56153846153848L81.25,141.03076923076924L81.9,145.13846153846154L82.55,150.6153846153846L83.2,147.19230769230768L83.85000000000001,154.03846153846155L84.5,156.77692307692308L85.15,156.77692307692308L85.8,155.40769230769232L86.45,149.93076923076924L87.10000000000001,155.40769230769232L87.75,151.98461538461538L88.4,143.76923076923077L89.05000000000001,158.14615384615385L89.69999999999999,146.5076923076923L90.35,143.76923076923077L91,154.03846153846155L91.64999999999999,156.09230769230768L92.3,156.09230769230768L92.95,157.46153846153845L93.6,157.46153846153845L94.25,136.23846153846154L94.89999999999999,154.03846153846155L95.55,154.03846153846155L96.2,151.3L96.85,137.6076923076923L97.5,154.03846153846155L98.15,154.03846153846155L98.8,158.14615384615385L99.45,150.6153846153846L100.10000000000001,140.34615384615384L100.75,145.82307692307694L101.4,149.24615384615385L102.05,145.82307692307694L102.7,149.93076923076924L103.35000000000001,147.87692307692308L104,150.6153846153846L104.65,155.40769230769232L105.30000000000001,155.40769230769232L105.94999999999999,150.6153846153846L106.6,154.03846153846155L107.25,158.14615384615385L107.89999999999999,149.24615384615385L108.55,143.76923076923077L109.2,145.82307692307694L109.85,124.6L110.5,145.82307692307694L111.14999999999999,149.24615384615385L111.8,157.46153846153845L112.45,154.03846153846155L113.1,148.56153846153848L113.75,154.72307692307692L114.4,150.6153846153846L115.05,156.09230769230768L115.7,151.98461538461538L116.35000000000001,154.03846153846155L117,151.98461538461538L117.65,149.93076923076924L118.3,152.66923076923078L118.95,155.40769230769232L119.60000000000001,153.35384615384615L120.25,147.87692307692308L120.9,150.6153846153846L121.55000000000001,145.82307692307694L122.19999999999999,153.35384615384615L122.85,146.5076923076923L123.5,151.98461538461538L124.14999999999999,140.34615384615384L124.8,141.7153846153846L125.45,158.14615384615385L126.1,146.5076923076923L126.75,149.93076923076924L127.39999999999999,154.72307692307692L128.05,144.45384615384614L128.7,149.24615384615385L129.35,142.4L130,145.13846153846154L130.64999999999998,145.82307692307694L131.3,154.72307692307692L131.95,143.76923076923077L132.6,155.40769230769232L133.25,154.03846153846155L133.9,151.3L134.54999999999998,147.19230769230768L135.20000000000002,141.7153846153846L135.85,152.66923076923078L136.5,154.03846153846155L137.15,155.40769230769232L137.8,145.13846153846154L138.45,145.13846153846154L139.1,149.24615384615385L139.75,115.7L140.4,154.72307692307692L141.04999999999998,149.93076923076924L141.70000000000002,154.72307692307692L142.35,142.4L143,138.97692307692307L143.65,151.3L144.3,151.98461538461538L144.95,151.98461538461538L145.60000000000002,156.09230769230768L146.25,139.66153846153847L146.89999999999998,145.82307692307694L147.55,144.45384615384614L148.2,149.93076923076924L148.85,151.3L149.5,136.9230769230769L150.15,154.72307692307692L150.79999999999998,155.40769230769232L151.45000000000002,153.35384615384615L152.1,145.13846153846154L152.75,132.81538461538463L153.4,56.13846153846154L154.05,132.13076923076923L154.7,134.18461538461537L155.35,146.5076923076923L156,147.19230769230768L156.65,117.75384615384615L157.29999999999998,134.86923076923077L157.95000000000002,143.08461538461538L158.6,149.24615384615385L159.25,119.8076923076923L159.9,154.03846153846155L160.55,143.76923076923077L161.2,146.5076923076923L161.85000000000002,100.63846153846154L162.5,151.3L163.14999999999998,108.85384615384615L163.8,133.5L164.45,136.23846153846154L165.1,113.64615384615385L165.75,145.13846153846154L166.4,149.24615384615385L167.04999999999998,109.53846153846153L167.70000000000002,142.4L168.35,127.33846153846153L169,150.6153846153846L169.65,112.96153846153847L170.3,151.98461538461538L170.95,140.34615384615384L171.6,121.17692307692309L172.25,114.33076923076922L172.9,126.65384615384616L173.54999999999998,143.76923076923077L174.20000000000002,134.86923076923077L174.85,136.9230769230769L175.5,114.33076923076922L176.15,135.55384615384617L176.8,136.23846153846154L177.45,136.23846153846154L178.10000000000002,144.45384615384614L178.75,141.03076923076924L179.39999999999998,152.66923076923078L180.05,128.7076923076923L180.7,82.83846153846154L181.35,125.28461538461539L182,136.23846153846154L182.65,96.53076923076924L183.29999999999998,135.55384615384617L183.95000000000002,136.9230769230769L184.6,142.4L185.25,147.87692307692308L185.9,128.02307692307693L186.55,115.7L187.2,150.6153846153846L187.85,151.98461538461538L188.5,91.05384615384615L189.15,122.54615384615384L189.79999999999998,107.48461538461538L190.45000000000002,125.96923076923076L191.1,80.1L191.75,150.6153846153846L192.4,126.65384615384616L193.05,129.3923076923077L193.7,123.23076923076923L194.35000000000002,136.9230769230769L195,145.13846153846154L195.64999999999998,139.66153846153847L196.3,127.33846153846153L196.95,128.02307692307693L197.6,139.66153846153847L198.25,150.6153846153846L198.9,141.7153846153846L199.54999999999998,137.6076923076923L200.20000000000002,125.96923076923076L200.85,138.97692307692307L201.5,141.03076923076924L202.15,121.17692307692309L202.8,132.81538461538463L203.45,57.507692307692295L204.1,27.384615384615387L204.75,111.59230769230768L205.4,103.37692307692308L206.04999999999998,50.661538461538456L206.70000000000002,132.13076923076923L207.35,80.78461538461539L208,86.26153846153846L208.65,71.2L209.3,52.030769230769224L209.95,77.36153846153846L210.60000000000002,144.45384615384614L211.25,131.44615384615383L211.89999999999998,36.28461538461539L212.55,31.49230769230769L213.2,27.384615384615387L213.85,29.438461538461524L214.5,27.384615384615387L215.15,27.384615384615387L215.79999999999998,27.384615384615387L216.45000000000002,29.438461538461524L217.1,27.384615384615387L217.75,27.384615384615387L218.4,27.384615384615387L219.05,46.55384615384614L219.7,27.384615384615387L220.35,31.49230769230769L221,27.384615384615387L221.65,27.384615384615387L222.29999999999998,39.02307692307693L222.95000000000002,32.17692307692309L223.6,41.076923076923066L224.25,39.02307692307693L224.9,27.384615384615387L225.55,39.02307692307693L226.2,27.384615384615387L226.85000000000002,37.65384615384616" style="fill: none;" fill="none"></path></g></g></g></g></g></g><g transform="translate(70, 178)" clip-path="url(#clip_1)"><clipPath id="clip_1"><rect width="260" height="22"></rect></clipPath><g><g><line x1="0" y1="0" x2="0" y2="5" style="visibility: inherit;" fill="rgb(0, 0, 0)" stroke="rgb(204, 204, 204)" stroke-width="1px"></line><line x1="32.5" y1="0" x2="32.5" y2="5" style="visibility: inherit;" fill="rgb(0, 0, 0)" stroke="rgb(204, 204, 204)" stroke-width="1px"></line><line x1="65" y1="0" x2="65" y2="5" style="visibility: inherit;" fill="rgb(0, 0, 0)" stroke="rgb(204, 204, 204)" stroke-width="1px"></line><line x1="97.5" y1="0" x2="97.5" y2="5" style="visibility: inherit;" fill="rgb(0, 0, 0)" stroke="rgb(204, 204, 204)" stroke-width="1px"></line><line x1="130" y1="0" x2="130" y2="5" style="visibility: inherit;" fill="rgb(0, 0, 0)" stroke="rgb(204, 204, 204)" stroke-width="1px"></line><line x1="162.5" y1="0" x2="162.5" y2="5" style="visibility: inherit;" fill="rgb(0, 0, 0)" stroke="rgb(204, 204, 204)" stroke-width="1px"></line><line x1="195" y1="0" x2="195" y2="5" style="visibility: inherit;" fill="rgb(0, 0, 0)" stroke="rgb(204, 204, 204)" stroke-width="1px"></line><line x1="227.5" y1="0" x2="227.5" y2="5" style="visibility: inherit;" fill="rgb(0, 0, 0)" stroke="rgb(204, 204, 204)" stroke-width="1px"></line><line x1="260" y1="0" x2="260" y2="5" style="visibility: inherit;" fill="rgb(0, 0, 0)" stroke="rgb(204, 204, 204)" stroke-width="1px"></line></g><g transform="translate(0, 8)"><text x="0" y="0" dx="0em" dy="0.95em" style="text-anchor: middle; visibility: hidden; font-family: &quot;Helvetica Neue&quot;, sans-serif; font-size: 12px; font-weight: 200;" fill="rgb(50, 49, 63)" stroke="none" stroke-width="1px">-50.00</text><text x="32.5" y="0" dx="0em" dy="0.95em" style="text-anchor: middle; visibility: inherit; font-family: &quot;Helvetica Neue&quot;, sans-serif; font-size: 12px; font-weight: 200;" fill="rgb(50, 49, 63)" stroke="none" stroke-width="1px">0.000</text><text x="65" y="0" dx="0em" dy="0.95em" style="text-anchor: middle; visibility: hidden; font-family: &quot;Helvetica Neue&quot;, sans-serif; font-size: 12px; font-weight: 200;" fill="rgb(50, 49, 63)" stroke="none" stroke-width="1px">50.00</text><text x="97.5" y="0" dx="0em" dy="0.95em" style="text-anchor: middle; visibility: inherit; font-family: &quot;Helvetica Neue&quot;, sans-serif; font-size: 12px; font-weight: 200;" fill="rgb(50, 49, 63)" stroke="none" stroke-width="1px">100.0</text><text x="130" y="0" dx="0em" dy="0.95em" style="text-anchor: middle; visibility: hidden; font-family: &quot;Helvetica Neue&quot;, sans-serif; font-size: 12px; font-weight: 200;" fill="rgb(50, 49, 63)" stroke="none" stroke-width="1px">150.0</text><text x="162.5" y="0" dx="0em" dy="0.95em" style="text-anchor: middle; visibility: inherit; font-family: &quot;Helvetica Neue&quot;, sans-serif; font-size: 12px; font-weight: 200;" fill="rgb(50, 49, 63)" stroke="none" stroke-width="1px">200.0</text><text x="195" y="0" dx="0em" dy="0.95em" style="text-anchor: middle; visibility: hidden; font-family: &quot;Helvetica Neue&quot;, sans-serif; font-size: 12px; font-weight: 200;" fill="rgb(50, 49, 63)" stroke="none" stroke-width="1px">250.0</text><text x="227.5" y="0" dx="0em" dy="0.95em" style="text-anchor: middle; visibility: inherit; font-family: &quot;Helvetica Neue&quot;, sans-serif; font-size: 12px; font-weight: 200;" fill="rgb(50, 49, 63)" stroke="none" stroke-width="1px">300.0</text><text x="260" y="0" dx="0em" dy="0.95em" style="text-anchor: middle; visibility: hidden; font-family: &quot;Helvetica Neue&quot;, sans-serif; font-size: 12px; font-weight: 200;" fill="rgb(50, 49, 63)" stroke="none" stroke-width="1px">350.0</text></g><line x1="0" y1="0" x2="260" y2="0" fill="rgb(0, 0, 0)" stroke="rgb(204, 204, 204)" stroke-width="1px"></line></g></g></g></g></svg>